<?xml version="1.0" encoding="UTF-8" standalone="no"?>
<svg width="660.4mm" height="25.4mm"
 xmlns="http://www.w3.org/2000/svg" xmlns:xlink="http://www.w3.org/1999/xlink"  version="1.2" baseProfile="tiny">
<title>Qt SVG Document</title>
<desc>Generated with Qt</desc>
<defs>
</defs>
<g fill="none" stroke="black" stroke-width="1" fill-rule="evenodd" stroke-linecap="square" stroke-linejoin="bevel" >

<g fill="none" stroke="#000000" stroke-opacity="1" stroke-width="1" stroke-linecap="square" stroke-linejoin="bevel" transform="matrix(1,0,0,1,0,0)"
font-family="Ubuntu" font-size="11" font-weight="400" font-style="normal" 
>
</g>

<g fill="none" stroke="#000000" stroke-opacity="1" stroke-width="1" stroke-linecap="square" stroke-linejoin="bevel" transform="matrix(1,0,0,1,0,0)"
font-family="Ubuntu" font-size="11" font-weight="400" font-style="normal" 
>
</g>

<g fill="none" stroke="#000000" stroke-opacity="1" stroke-width="1" stroke-linecap="square" stroke-linejoin="bevel" transform="matrix(1.99952,0,0,1.99952,-0.00479885,71.9827)"
font-family="Ubuntu" font-size="11" font-weight="400" font-style="normal" 
>
</g>

<g fill="#ffffff" fill-opacity="1" stroke="none" transform="matrix(1.99952,0,0,1.99952,-0.00479885,71.9827)"
font-family="Ubuntu" font-size="11" font-weight="400" font-style="normal" 
>
<rect x="0.0024" y="-36" width="936.225" height="36"/>
</g>

<g fill="none" stroke="#000000" stroke-opacity="1" stroke-width="1" stroke-linecap="square" stroke-linejoin="bevel" transform="matrix(1.99952,0,0,1.99952,-0.00479885,71.9827)"
font-family="Ubuntu" font-size="11" font-weight="400" font-style="normal" 
>
</g>

<g fill="none" stroke="#000000" stroke-opacity="1" stroke-width="1" stroke-linecap="square" stroke-linejoin="bevel" transform="matrix(1.99952,0,0,1.99952,-0.00479885,71.9827)"
font-family="Ubuntu" font-size="11" font-weight="400" font-style="normal" 
>
</g>

<g fill="none" stroke="#000000" stroke-opacity="1" stroke-width="1" stroke-linecap="square" stroke-linejoin="bevel" transform="matrix(1.99952,0,0,1.99952,-0.00479885,71.9827)"
font-family="Ubuntu" font-size="11" font-weight="400" font-style="normal" 
>
</g>

<g fill="none" stroke="#000000" stroke-opacity="1" stroke-width="1" stroke-linecap="square" stroke-linejoin="bevel" transform="matrix(1.99952,0,0,1.99952,-0.00479885,71.9827)"
font-family="Ubuntu" font-size="11" font-weight="400" font-style="normal" 
>
</g>

<g fill="none" stroke="#000000" stroke-opacity="1" stroke-width="1" stroke-linecap="square" stroke-linejoin="round" transform="matrix(1.99952,0,0,1.99952,-0.00479885,71.9827)"
font-family="Ubuntu" font-size="11" font-weight="400" font-style="normal" 
>
<ellipse cx="471.11" cy="-18" rx="140.537" ry="17.5"/>
</g>

<g fill="none" stroke="#000000" stroke-opacity="1" stroke-width="1" stroke-linecap="square" stroke-linejoin="bevel" transform="matrix(1.99952,0,0,1.99952,-0.00479885,71.9827)"
font-family="Ubuntu" font-size="11" font-weight="400" font-style="normal" 
>
</g>

<g fill="none" stroke="#000000" stroke-opacity="1" stroke-width="1" stroke-linecap="square" stroke-linejoin="bevel" transform="matrix(1.99952,0,0,1.99952,741.021,22.9945)"
font-family="Ubuntu" font-size="11" font-weight="400" font-style="normal" 
>
</g>

<g fill="none" stroke="#000000" stroke-opacity="1" stroke-width="1" stroke-linecap="square" stroke-linejoin="bevel" transform="matrix(1.99952,0,0,1.99952,741.021,22.9945)"
font-family="sans" font-size="11" font-weight="100" font-style="normal" 
>
</g>

<g fill="#000000" fill-opacity="1" stroke="#000000" stroke-opacity="1" stroke-width="1" stroke-linecap="square" stroke-linejoin="round" transform="matrix(1.99952,0,0,1.99952,741.021,22.9945)"
font-family="sans" font-size="11" font-weight="100" font-style="normal" 
>
<path vector-effect="none" fill-rule="nonzero" d="M2.79688,1.98438 L3.70312,1.98438 L0.90625,11.0156 L0,11.0156 L2.79688,1.98438 M8.21875,4.90625 C8.11458,4.84375 7.9974,4.79688 7.86719,4.76562 C7.73698,4.73438 7.59375,4.71875 7.4375,4.71875 C6.875,4.71875 6.44531,4.90104 6.14844,5.26562 C5.85156,5.63021 5.70312,6.15104 5.70312,6.82812 L5.70312,10 L4.70312,10 L4.70312,3.98438 L5.70312,3.98438 L5.70312,4.92188 C5.90104,4.55729 6.16667,4.28646 6.5,4.10938 C6.83333,3.93229 7.23958,3.84375 7.71875,3.84375 C7.79167,3.84375 7.86719,3.84635 7.94531,3.85156 C8.02344,3.85677 8.11458,3.86979 8.21875,3.89062 L8.21875,4.90625 M11.9844,6.96875 C11.1927,6.96875 10.6432,7.0625 10.3359,7.25 C10.0286,7.4375 9.875,7.75 9.875,8.1875 C9.875,8.53125 9.98958,8.80729 10.2188,9.01562 C10.4479,9.22396 10.7604,9.32812 11.1562,9.32812 C11.7083,9.32812 12.1484,9.13281 12.4766,8.74219 C12.8047,8.35156 12.9688,7.83854 12.9688,7.20312 L12.9688,6.96875 L11.9844,6.96875 M13.9531,6.5625 L13.9531,10 L12.9688,10 L12.9688,9.09375 C12.75,9.45833 12.4714,9.72656 12.1328,9.89844 C11.7943,10.0703 11.3802,10.1562 10.8906,10.1562 C10.276,10.1562 9.78646,9.98438 9.42188,9.64062 C9.05729,9.29688 8.875,8.83333 8.875,8.25 C8.875,7.57292 9.10156,7.0625 9.55469,6.71875 C10.0078,6.375 10.6875,6.20312 11.5938,6.20312 L12.9688,6.20312 L12.9688,6.10938 C12.9688,5.65104 12.8203,5.29688 12.5234,5.04688 C12.2266,4.79688 11.8073,4.67188 11.2656,4.67188 C10.9219,4.67188 10.5859,4.71354 10.2578,4.79688 C9.92969,4.88021 9.61458,5.00521 9.3125,5.17188 L9.3125,4.26562 C9.67708,4.11979 10.0312,4.01302 10.375,3.94531 C10.7188,3.8776 11.0469,3.84375 11.3594,3.84375 C12.2344,3.84375 12.8854,4.06771 13.3125,4.51562 C13.7396,4.96354 13.9531,5.64583 13.9531,6.5625 M20.9844,6.375 L20.9844,10 L20,10 L20,6.40625 C20,5.83333 19.8906,5.40625 19.6719,5.125 C19.4531,4.84375 19.1198,4.70312 18.6719,4.70312 C18.1406,4.70312 17.7214,4.8724 17.4141,5.21094 C17.1068,5.54948 16.9531,6.01042 16.9531,6.59375 L16.9531,10 L15.9531,10 L15.9531,3.98438 L16.9531,3.98438 L16.9531,4.92188 C17.1823,4.55729 17.4583,4.28646 17.7812,4.10938 C18.1042,3.93229 18.474,3.84375 18.8906,3.84375 C19.5781,3.84375 20.099,4.05729 20.4531,4.48438 C20.8073,4.91146 20.9844,5.54167 20.9844,6.375 M26.9219,4.89062 L26.9219,1.64062 L27.9062,1.64062 L27.9062,10 L26.9219,10 L26.9219,9.09375 C26.7135,9.45833 26.4505,9.72656 26.1328,9.89844 C25.8151,10.0703 25.4323,10.1562 24.9844,10.1562 C24.2656,10.1562 23.6771,9.86719 23.2188,9.28906 C22.7604,8.71094 22.5312,7.94792 22.5312,7 C22.5312,6.05208 22.7604,5.28906 23.2188,4.71094 C23.6771,4.13281 24.2656,3.84375 24.9844,3.84375 C25.4323,3.84375 25.8151,3.92969 26.1328,4.10156 C26.4505,4.27344 26.7135,4.53646 26.9219,4.89062 M23.5469,7 C23.5469,7.72917 23.6979,8.29948 24,8.71094 C24.3021,9.1224 24.7135,9.32812 25.2344,9.32812 C25.7552,9.32812 26.1667,9.1224 26.4688,8.71094 C26.7708,8.29948 26.9219,7.72917 26.9219,7 C26.9219,6.27083 26.7708,5.70052 26.4688,5.28906 C26.1667,4.8776 25.7552,4.67188 25.2344,4.67188 C24.7135,4.67188 24.3021,4.8776 24,5.28906 C23.6979,5.70052 23.5469,6.27083 23.5469,7 M32.2656,4.67188 C31.7344,4.67188 31.3151,4.88021 31.0078,5.29688 C30.7005,5.71354 30.5469,6.28125 30.5469,7 C30.5469,7.71875 30.6979,8.28385 31,8.69531 C31.3021,9.10677 31.724,9.3125 32.2656,9.3125 C32.7865,9.3125 33.2005,9.10677 33.5078,8.69531 C33.8151,8.28385 33.9688,7.71875 33.9688,7 C33.9688,6.28125 33.8151,5.71354 33.5078,5.29688 C33.2005,4.88021 32.7865,4.67188 32.2656,4.67188 M32.2656,3.84375 C33.1198,3.84375 33.7917,4.1224 34.2812,4.67969 C34.7708,5.23698 35.0156,6.01042 35.0156,7 C35.0156,7.97917 34.7708,8.75 34.2812,9.3125 C33.7917,9.875 33.1198,10.1562 32.2656,10.1562 C31.401,10.1562 30.724,9.875 30.2344,9.3125 C29.7448,8.75 29.5,7.97917 29.5,7 C29.5,6.01042 29.7448,5.23698 30.2344,4.67969 C30.724,4.1224 31.401,3.84375 32.2656,3.84375 M41.3281,5.14062 C41.5781,4.69271 41.875,4.36458 42.2188,4.15625 C42.5625,3.94792 42.9688,3.84375 43.4375,3.84375 C44.0625,3.84375 44.5443,4.0625 44.8828,4.5 C45.2214,4.9375 45.3906,5.5625 45.3906,6.375 L45.3906,10 L44.3906,10 L44.3906,6.40625 C44.3906,5.82292 44.2891,5.39323 44.0859,5.11719 C43.8828,4.84115 43.5729,4.70312 43.1562,4.70312 C42.6458,4.70312 42.2422,4.8724 41.9453,5.21094 C41.6484,5.54948 41.5,6.01042 41.5,6.59375 L41.5,10 L40.5,10 L40.5,6.40625 C40.5,5.82292 40.3984,5.39323 40.1953,5.11719 C39.9922,4.84115 39.6771,4.70312 39.25,4.70312 C38.75,4.70312 38.3516,4.8724 38.0547,5.21094 C37.7578,5.54948 37.6094,6.01042 37.6094,6.59375 L37.6094,10 L36.6094,10 L36.6094,3.98438 L37.6094,3.98438 L37.6094,4.92188 C37.8281,4.54688 38.0964,4.27344 38.4141,4.10156 C38.7318,3.92969 39.1042,3.84375 39.5312,3.84375 C39.9688,3.84375 40.3411,3.95312 40.6484,4.17188 C40.9557,4.39062 41.1823,4.71354 41.3281,5.14062 M51.9219,11.8281 L51.9219,12.5938 L46.2031,12.5938 L46.2031,11.8281 L51.9219,11.8281 M57.8438,6.375 L57.8438,10 L56.8594,10 L56.8594,6.40625 C56.8594,5.83333 56.75,5.40625 56.5312,5.125 C56.3125,4.84375 55.9792,4.70312 55.5312,4.70312 C55,4.70312 54.5807,4.8724 54.2734,5.21094 C53.9661,5.54948 53.8125,6.01042 53.8125,6.59375 L53.8125,10 L52.8125,10 L52.8125,3.98438 L53.8125,3.98438 L53.8125,4.92188 C54.0417,4.55729 54.3177,4.28646 54.6406,4.10938 C54.9635,3.93229 55.3333,3.84375 55.75,3.84375 C56.4375,3.84375 56.9583,4.05729 57.3125,4.48438 C57.6667,4.91146 57.8438,5.54167 57.8438,6.375 M59.7188,7.625 L59.7188,3.98438 L60.7031,3.98438 L60.7031,7.59375 C60.7031,8.15625 60.8151,8.58073 61.0391,8.86719 C61.263,9.15365 61.5938,9.29688 62.0312,9.29688 C62.5729,9.29688 62.9974,9.1276 63.3047,8.78906 C63.612,8.45052 63.7656,7.98438 63.7656,7.39062 L63.7656,3.98438 L64.75,3.98438 L64.75,10 L63.7656,10 L63.7656,9.07812 C63.526,9.44271 63.2474,9.71354 62.9297,9.89062 C62.612,10.0677 62.2448,10.1562 61.8281,10.1562 C61.1406,10.1562 60.6172,9.9401 60.2578,9.50781 C59.8984,9.07552 59.7188,8.44792 59.7188,7.625 M71.4688,5.14062 C71.7188,4.69271 72.0156,4.36458 72.3594,4.15625 C72.7031,3.94792 73.1094,3.84375 73.5781,3.84375 C74.2031,3.84375 74.6849,4.0625 75.0234,4.5 C75.362,4.9375 75.5312,5.5625 75.5312,6.375 L75.5312,10 L74.5312,10 L74.5312,6.40625 C74.5312,5.82292 74.4297,5.39323 74.2266,5.11719 C74.0234,4.84115 73.7135,4.70312 73.2969,4.70312 C72.7865,4.70312 72.3828,4.8724 72.0859,5.21094 C71.7891,5.54948 71.6406,6.01042 71.6406,6.59375 L71.6406,10 L70.6406,10 L70.6406,6.40625 C70.6406,5.82292 70.5391,5.39323 70.3359,5.11719 C70.1328,4.84115 69.8177,4.70312 69.3906,4.70312 C68.8906,4.70312 68.4922,4.8724 68.1953,5.21094 C67.8984,5.54948 67.75,6.01042 67.75,6.59375 L67.75,10 L66.75,10 L66.75,3.98438 L67.75,3.98438 L67.75,4.92188 C67.9688,4.54688 68.237,4.27344 68.5547,4.10156 C68.8724,3.92969 69.2448,3.84375 69.6719,3.84375 C70.1094,3.84375 70.4818,3.95312 70.7891,4.17188 C71.0964,4.39062 71.3229,4.71354 71.4688,5.14062 M82.0625,11.8281 L82.0625,12.5938 L76.3438,12.5938 L76.3438,11.8281 L82.0625,11.8281 M85.7188,6.96875 C84.9271,6.96875 84.3776,7.0625 84.0703,7.25 C83.763,7.4375 83.6094,7.75 83.6094,8.1875 C83.6094,8.53125 83.724,8.80729 83.9531,9.01562 C84.1823,9.22396 84.4948,9.32812 84.8906,9.32812 C85.4427,9.32812 85.8828,9.13281 86.2109,8.74219 C86.5391,8.35156 86.7031,7.83854 86.7031,7.20312 L86.7031,6.96875 L85.7188,6.96875 M87.6875,6.5625 L87.6875,10 L86.7031,10 L86.7031,9.09375 C86.4844,9.45833 86.2057,9.72656 85.8672,9.89844 C85.5286,10.0703 85.1146,10.1562 84.625,10.1562 C84.0104,10.1562 83.5208,9.98438 83.1562,9.64062 C82.7917,9.29688 82.6094,8.83333 82.6094,8.25 C82.6094,7.57292 82.8359,7.0625 83.2891,6.71875 C83.7422,6.375 84.4219,6.20312 85.3281,6.20312 L86.7031,6.20312 L86.7031,6.10938 C86.7031,5.65104 86.5547,5.29688 86.2578,5.04688 C85.9609,4.79688 85.5417,4.67188 85,4.67188 C84.6562,4.67188 84.3203,4.71354 83.9922,4.79688 C83.6641,4.88021 83.349,5.00521 83.0469,5.17188 L83.0469,4.26562 C83.4115,4.11979 83.7656,4.01302 84.1094,3.94531 C84.4531,3.8776 84.7812,3.84375 85.0938,3.84375 C85.9688,3.84375 86.6198,4.06771 87.0469,4.51562 C87.474,4.96354 87.6875,5.64583 87.6875,6.5625 M93.6875,4.89062 L93.6875,1.64062 L94.6719,1.64062 L94.6719,10 L93.6875,10 L93.6875,9.09375 C93.4792,9.45833 93.2161,9.72656 92.8984,9.89844 C92.5807,10.0703 92.1979,10.1562 91.75,10.1562 C91.0312,10.1562 90.4427,9.86719 89.9844,9.28906 C89.526,8.71094 89.2969,7.94792 89.2969,7 C89.2969,6.05208 89.526,5.28906 89.9844,4.71094 C90.4427,4.13281 91.0312,3.84375 91.75,3.84375 C92.1979,3.84375 92.5807,3.92969 92.8984,4.10156 C93.2161,4.27344 93.4792,4.53646 93.6875,4.89062 M90.3125,7 C90.3125,7.72917 90.4635,8.29948 90.7656,8.71094 C91.0677,9.1224 91.4792,9.32812 92,9.32812 C92.5208,9.32812 92.9323,9.1224 93.2344,8.71094 C93.5365,8.29948 93.6875,7.72917 93.6875,7 C93.6875,6.27083 93.5365,5.70052 93.2344,5.28906 C92.9323,4.8776 92.5208,4.67188 92,4.67188 C91.4792,4.67188 91.0677,4.8776 90.7656,5.28906 C90.4635,5.70052 90.3125,6.27083 90.3125,7 M100.656,4.89062 L100.656,1.64062 L101.641,1.64062 L101.641,10 L100.656,10 L100.656,9.09375 C100.448,9.45833 100.185,9.72656 99.8672,9.89844 C99.5495,10.0703 99.1667,10.1562 98.7188,10.1562 C98,10.1562 97.4115,9.86719 96.9531,9.28906 C96.4948,8.71094 96.2656,7.94792 96.2656,7 C96.2656,6.05208 96.4948,5.28906 96.9531,4.71094 C97.4115,4.13281 98,3.84375 98.7188,3.84375 C99.1667,3.84375 99.5495,3.92969 99.8672,4.10156 C100.185,4.27344 100.448,4.53646 100.656,4.89062 M97.2812,7 C97.2812,7.72917 97.4323,8.29948 97.7344,8.71094 C98.0365,9.1224 98.4479,9.32812 98.9688,9.32812 C99.4896,9.32812 99.901,9.1224 100.203,8.71094 C100.505,8.29948 100.656,7.72917 100.656,7 C100.656,6.27083 100.505,5.70052 100.203,5.28906 C99.901,4.8776 99.4896,4.67188 98.9688,4.67188 C98.4479,4.67188 98.0365,4.8776 97.7344,5.28906 C97.4323,5.70052 97.2812,6.27083 97.2812,7 M103.656,3.98438 L104.656,3.98438 L104.656,10 L103.656,10 L103.656,3.98438 M103.656,1.64062 L104.656,1.64062 L104.656,2.89062 L103.656,2.89062 L103.656,1.64062 M107.688,2.28125 L107.688,3.98438 L109.719,3.98438 L109.719,4.75 L107.688,4.75 L107.688,8.01562 C107.688,8.50521 107.755,8.82031 107.891,8.96094 C108.026,9.10156 108.297,9.17188 108.703,9.17188 L109.719,9.17188 L109.719,10 L108.703,10 C107.943,10 107.417,9.85677 107.125,9.57031 C106.833,9.28385 106.688,8.76562 106.688,8.01562 L106.688,4.75 L105.969,4.75 L105.969,3.98438 L106.688,3.98438 L106.688,2.28125 L107.688,2.28125 M111.016,3.98438 L112.016,3.98438 L112.016,10 L111.016,10 L111.016,3.98438 M111.016,1.64062 L112.016,1.64062 L112.016,2.89062 L111.016,2.89062 L111.016,1.64062 M116.406,4.67188 C115.875,4.67188 115.456,4.88021 115.148,5.29688 C114.841,5.71354 114.688,6.28125 114.688,7 C114.688,7.71875 114.839,8.28385 115.141,8.69531 C115.443,9.10677 115.865,9.3125 116.406,9.3125 C116.927,9.3125 117.341,9.10677 117.648,8.69531 C117.956,8.28385 118.109,7.71875 118.109,7 C118.109,6.28125 117.956,5.71354 117.648,5.29688 C117.341,4.88021 116.927,4.67188 116.406,4.67188 M116.406,3.84375 C117.26,3.84375 117.932,4.1224 118.422,4.67969 C118.911,5.23698 119.156,6.01042 119.156,7 C119.156,7.97917 118.911,8.75 118.422,9.3125 C117.932,9.875 117.26,10.1562 116.406,10.1562 C115.542,10.1562 114.865,9.875 114.375,9.3125 C113.885,8.75 113.641,7.97917 113.641,7 C113.641,6.01042 113.885,5.23698 114.375,4.67969 C114.865,4.1224 115.542,3.84375 116.406,3.84375 M125.781,6.375 L125.781,10 L124.797,10 L124.797,6.40625 C124.797,5.83333 124.688,5.40625 124.469,5.125 C124.25,4.84375 123.917,4.70312 123.469,4.70312 C122.938,4.70312 122.518,4.8724 122.211,5.21094 C121.904,5.54948 121.75,6.01042 121.75,6.59375 L121.75,10 L120.75,10 L120.75,3.98438 L121.75,3.98438 L121.75,4.92188 C121.979,4.55729 122.255,4.28646 122.578,4.10938 C122.901,3.93229 123.271,3.84375 123.688,3.84375 C124.375,3.84375 124.896,4.05729 125.25,4.48438 C125.604,4.91146 125.781,5.54167 125.781,6.375 M132.328,11.8281 L132.328,12.5938 L126.609,12.5938 L126.609,11.8281 L132.328,11.8281 M137.219,6.92188 C137.219,6.20312 137.07,5.64844 136.773,5.25781 C136.477,4.86719 136.062,4.67188 135.531,4.67188 C135,4.67188 134.586,4.86719 134.289,5.25781 C133.992,5.64844 133.844,6.20312 133.844,6.92188 C133.844,7.63021 133.992,8.18229 134.289,8.57812 C134.586,8.97396 135,9.17188 135.531,9.17188 C136.062,9.17188 136.477,8.97396 136.773,8.57812 C137.07,8.18229 137.219,7.63021 137.219,6.92188 M138.203,9.25 C138.203,10.2812 137.977,11.0443 137.523,11.5391 C137.07,12.0339 136.375,12.2812 135.438,12.2812 C135.083,12.2812 134.753,12.2552 134.445,12.2031 C134.138,12.151 133.839,12.0729 133.547,11.9688 L133.547,11.0156 C133.839,11.1719 134.125,11.2865 134.406,11.3594 C134.688,11.4323 134.979,11.4688 135.281,11.4688 C135.927,11.4688 136.411,11.2995 136.734,10.9609 C137.057,10.6224 137.219,10.1146 137.219,9.4375 L137.219,8.9375 C137.01,9.29167 136.747,9.55729 136.43,9.73438 C136.112,9.91146 135.729,10 135.281,10 C134.542,10 133.948,9.71875 133.5,9.15625 C133.052,8.59375 132.828,7.84896 132.828,6.92188 C132.828,5.99479 133.052,5.25 133.5,4.6875 C133.948,4.125 134.542,3.84375 135.281,3.84375 C135.729,3.84375 136.112,3.92969 136.43,4.10156 C136.747,4.27344 137.01,4.53646 137.219,4.89062 L137.219,3.98438 L138.203,3.98438 L138.203,9.25 M145.375,6.75 L145.375,7.23438 L140.828,7.23438 C140.87,7.91146 141.073,8.42708 141.438,8.78125 C141.802,9.13542 142.312,9.3125 142.969,9.3125 C143.354,9.3125 143.724,9.26562 144.078,9.17188 C144.432,9.07812 144.786,8.94271 145.141,8.76562 L145.141,9.6875 C144.786,9.84375 144.422,9.96094 144.047,10.0391 C143.672,10.1172 143.297,10.1562 142.922,10.1562 C141.953,10.1562 141.19,9.8776 140.633,9.32031 C140.076,8.76302 139.797,8.00521 139.797,7.04688 C139.797,6.06771 140.062,5.28906 140.594,4.71094 C141.125,4.13281 141.844,3.84375 142.75,3.84375 C143.552,3.84375 144.19,4.10417 144.664,4.625 C145.138,5.14583 145.375,5.85417 145.375,6.75 M144.375,6.45312 C144.375,5.91146 144.227,5.47917 143.93,5.15625 C143.633,4.83333 143.24,4.67188 142.75,4.67188 C142.198,4.67188 141.758,4.82812 141.43,5.14062 C141.102,5.45312 140.911,5.89062 140.859,6.45312 L144.375,6.45312 M151.984,6.375 L151.984,10 L151,10 L151,6.40625 C151,5.83333 150.891,5.40625 150.672,5.125 C150.453,4.84375 150.12,4.70312 149.672,4.70312 C149.141,4.70312 148.721,4.8724 148.414,5.21094 C148.107,5.54948 147.953,6.01042 147.953,6.59375 L147.953,10 L146.953,10 L146.953,3.98438 L147.953,3.98438 L147.953,4.92188 C148.182,4.55729 148.458,4.28646 148.781,4.10938 C149.104,3.93229 149.474,3.84375 149.891,3.84375 C150.578,3.84375 151.099,4.05729 151.453,4.48438 C151.807,4.91146 151.984,5.54167 151.984,6.375 M156.688,6.96875 C155.896,6.96875 155.346,7.0625 155.039,7.25 C154.732,7.4375 154.578,7.75 154.578,8.1875 C154.578,8.53125 154.693,8.80729 154.922,9.01562 C155.151,9.22396 155.464,9.32812 155.859,9.32812 C156.411,9.32812 156.852,9.13281 157.18,8.74219 C157.508,8.35156 157.672,7.83854 157.672,7.20312 L157.672,6.96875 L156.688,6.96875 M158.656,6.5625 L158.656,10 L157.672,10 L157.672,9.09375 C157.453,9.45833 157.174,9.72656 156.836,9.89844 C156.497,10.0703 156.083,10.1562 155.594,10.1562 C154.979,10.1562 154.49,9.98438 154.125,9.64062 C153.76,9.29688 153.578,8.83333 153.578,8.25 C153.578,7.57292 153.805,7.0625 154.258,6.71875 C154.711,6.375 155.391,6.20312 156.297,6.20312 L157.672,6.20312 L157.672,6.10938 C157.672,5.65104 157.523,5.29688 157.227,5.04688 C156.93,4.79688 156.51,4.67188 155.969,4.67188 C155.625,4.67188 155.289,4.71354 154.961,4.79688 C154.633,4.88021 154.318,5.00521 154.016,5.17188 L154.016,4.26562 C154.38,4.11979 154.734,4.01302 155.078,3.94531 C155.422,3.8776 155.75,3.84375 156.062,3.84375 C156.938,3.84375 157.589,4.06771 158.016,4.51562 C158.443,4.96354 158.656,5.64583 158.656,6.5625 M164.656,4.89062 L164.656,1.64062 L165.641,1.64062 L165.641,10 L164.656,10 L164.656,9.09375 C164.448,9.45833 164.185,9.72656 163.867,9.89844 C163.549,10.0703 163.167,10.1562 162.719,10.1562 C162,10.1562 161.411,9.86719 160.953,9.28906 C160.495,8.71094 160.266,7.94792 160.266,7 C160.266,6.05208 160.495,5.28906 160.953,4.71094 C161.411,4.13281 162,3.84375 162.719,3.84375 C163.167,3.84375 163.549,3.92969 163.867,4.10156 C164.185,4.27344 164.448,4.53646 164.656,4.89062 M161.281,7 C161.281,7.72917 161.432,8.29948 161.734,8.71094 C162.036,9.1224 162.448,9.32812 162.969,9.32812 C163.49,9.32812 163.901,9.1224 164.203,8.71094 C164.505,8.29948 164.656,7.72917 164.656,7 C164.656,6.27083 164.505,5.70052 164.203,5.28906 C163.901,4.8776 163.49,4.67188 162.969,4.67188 C162.448,4.67188 162.036,4.8776 161.734,5.28906 C161.432,5.70052 161.281,6.27083 161.281,7 M171.625,4.89062 L171.625,1.64062 L172.609,1.64062 L172.609,10 L171.625,10 L171.625,9.09375 C171.417,9.45833 171.154,9.72656 170.836,9.89844 C170.518,10.0703 170.135,10.1562 169.688,10.1562 C168.969,10.1562 168.38,9.86719 167.922,9.28906 C167.464,8.71094 167.234,7.94792 167.234,7 C167.234,6.05208 167.464,5.28906 167.922,4.71094 C168.38,4.13281 168.969,3.84375 169.688,3.84375 C170.135,3.84375 170.518,3.92969 170.836,4.10156 C171.154,4.27344 171.417,4.53646 171.625,4.89062 M168.25,7 C168.25,7.72917 168.401,8.29948 168.703,8.71094 C169.005,9.1224 169.417,9.32812 169.938,9.32812 C170.458,9.32812 170.87,9.1224 171.172,8.71094 C171.474,8.29948 171.625,7.72917 171.625,7 C171.625,6.27083 171.474,5.70052 171.172,5.28906 C170.87,4.8776 170.458,4.67188 169.938,4.67188 C169.417,4.67188 169.005,4.8776 168.703,5.28906 C168.401,5.70052 168.25,6.27083 168.25,7 M179.625,6.375 L179.625,10 L178.641,10 L178.641,6.40625 C178.641,5.83333 178.531,5.40625 178.312,5.125 C178.094,4.84375 177.76,4.70312 177.312,4.70312 C176.781,4.70312 176.362,4.8724 176.055,5.21094 C175.747,5.54948 175.594,6.01042 175.594,6.59375 L175.594,10 L174.594,10 L174.594,3.98438 L175.594,3.98438 L175.594,4.92188 C175.823,4.55729 176.099,4.28646 176.422,4.10938 C176.745,3.93229 177.115,3.84375 177.531,3.84375 C178.219,3.84375 178.74,4.05729 179.094,4.48438 C179.448,4.91146 179.625,5.54167 179.625,6.375 M183.938,4.67188 C183.406,4.67188 182.987,4.88021 182.68,5.29688 C182.372,5.71354 182.219,6.28125 182.219,7 C182.219,7.71875 182.37,8.28385 182.672,8.69531 C182.974,9.10677 183.396,9.3125 183.938,9.3125 C184.458,9.3125 184.872,9.10677 185.18,8.69531 C185.487,8.28385 185.641,7.71875 185.641,7 C185.641,6.28125 185.487,5.71354 185.18,5.29688 C184.872,4.88021 184.458,4.67188 183.938,4.67188 M183.938,3.84375 C184.792,3.84375 185.464,4.1224 185.953,4.67969 C186.443,5.23698 186.688,6.01042 186.688,7 C186.688,7.97917 186.443,8.75 185.953,9.3125 C185.464,9.875 184.792,10.1562 183.938,10.1562 C183.073,10.1562 182.396,9.875 181.906,9.3125 C181.417,8.75 181.172,7.97917 181.172,7 C181.172,6.01042 181.417,5.23698 181.906,4.67969 C182.396,4.1224 183.073,3.84375 183.938,3.84375 M192.281,4.89062 L192.281,1.64062 L193.266,1.64062 L193.266,10 L192.281,10 L192.281,9.09375 C192.073,9.45833 191.81,9.72656 191.492,9.89844 C191.174,10.0703 190.792,10.1562 190.344,10.1562 C189.625,10.1562 189.036,9.86719 188.578,9.28906 C188.12,8.71094 187.891,7.94792 187.891,7 C187.891,6.05208 188.12,5.28906 188.578,4.71094 C189.036,4.13281 189.625,3.84375 190.344,3.84375 C190.792,3.84375 191.174,3.92969 191.492,4.10156 C191.81,4.27344 192.073,4.53646 192.281,4.89062 M188.906,7 C188.906,7.72917 189.057,8.29948 189.359,8.71094 C189.661,9.1224 190.073,9.32812 190.594,9.32812 C191.115,9.32812 191.526,9.1224 191.828,8.71094 C192.13,8.29948 192.281,7.72917 192.281,7 C192.281,6.27083 192.13,5.70052 191.828,5.28906 C191.526,4.8776 191.115,4.67188 190.594,4.67188 C190.073,4.67188 189.661,4.8776 189.359,5.28906 C189.057,5.70052 188.906,6.27083 188.906,7 M200.438,6.75 L200.438,7.23438 L195.891,7.23438 C195.932,7.91146 196.135,8.42708 196.5,8.78125 C196.865,9.13542 197.375,9.3125 198.031,9.3125 C198.417,9.3125 198.786,9.26562 199.141,9.17188 C199.495,9.07812 199.849,8.94271 200.203,8.76562 L200.203,9.6875 C199.849,9.84375 199.484,9.96094 199.109,10.0391 C198.734,10.1172 198.359,10.1562 197.984,10.1562 C197.016,10.1562 196.253,9.8776 195.695,9.32031 C195.138,8.76302 194.859,8.00521 194.859,7.04688 C194.859,6.06771 195.125,5.28906 195.656,4.71094 C196.188,4.13281 196.906,3.84375 197.812,3.84375 C198.615,3.84375 199.253,4.10417 199.727,4.625 C200.201,5.14583 200.438,5.85417 200.438,6.75 M199.438,6.45312 C199.438,5.91146 199.289,5.47917 198.992,5.15625 C198.695,4.83333 198.302,4.67188 197.812,4.67188 C197.26,4.67188 196.82,4.82812 196.492,5.14062 C196.164,5.45312 195.974,5.89062 195.922,6.45312 L199.438,6.45312"/>
</g>

<g fill="none" stroke="#000000" stroke-opacity="1" stroke-width="1" stroke-linecap="square" stroke-linejoin="bevel" transform="matrix(1.99952,0,0,1.99952,741.021,22.9945)"
font-family="sans" font-size="11" font-weight="100" font-style="normal" 
>
</g>

<g fill="none" stroke="#000000" stroke-opacity="1" stroke-width="1" stroke-linecap="square" stroke-linejoin="bevel" transform="matrix(1.99952,0,0,1.99952,741.021,22.9945)"
font-family="Ubuntu" font-size="11" font-weight="400" font-style="normal" 
>
</g>

<g fill="none" stroke="#000000" stroke-opacity="1" stroke-width="1" stroke-linecap="square" stroke-linejoin="bevel" transform="matrix(1.99952,0,0,1.99952,-0.00479885,71.9827)"
font-family="Ubuntu" font-size="11" font-weight="400" font-style="normal" 
>
</g>

<g fill="none" stroke="#000000" stroke-opacity="1" stroke-width="1" stroke-linecap="square" stroke-linejoin="bevel" transform="matrix(1.99952,0,0,1.99952,-0.00479885,71.9827)"
font-family="Ubuntu" font-size="11" font-weight="400" font-style="normal" 
>
</g>

<g fill="none" stroke="#000000" stroke-opacity="1" stroke-width="1" stroke-linecap="square" stroke-linejoin="bevel" transform="matrix(1.99952,0,0,1.99952,-0.00479885,71.9827)"
font-family="Ubuntu" font-size="11" font-weight="400" font-style="normal" 
>
</g>

<g fill="none" stroke="#000000" stroke-opacity="1" stroke-width="1" stroke-linecap="square" stroke-linejoin="round" transform="matrix(1.99952,0,0,1.99952,-0.00479885,71.9827)"
font-family="Ubuntu" font-size="11" font-weight="400" font-style="normal" 
>
<ellipse cx="808.19" cy="-18" rx="127.538" ry="17.5"/>
</g>

<g fill="none" stroke="#000000" stroke-opacity="1" stroke-width="1" stroke-linecap="square" stroke-linejoin="bevel" transform="matrix(1.99952,0,0,1.99952,-0.00479885,71.9827)"
font-family="Ubuntu" font-size="11" font-weight="400" font-style="normal" 
>
</g>

<g fill="none" stroke="#000000" stroke-opacity="1" stroke-width="1" stroke-linecap="square" stroke-linejoin="bevel" transform="matrix(1.99952,0,0,1.99952,1435.72,22.9945)"
font-family="Ubuntu" font-size="11" font-weight="400" font-style="normal" 
>
</g>

<g fill="none" stroke="#000000" stroke-opacity="1" stroke-width="1" stroke-linecap="square" stroke-linejoin="bevel" transform="matrix(1.99952,0,0,1.99952,1435.72,22.9945)"
font-family="sans" font-size="11" font-weight="100" font-style="normal" 
>
</g>

<g fill="#000000" fill-opacity="1" stroke="#000000" stroke-opacity="1" stroke-width="1" stroke-linecap="square" stroke-linejoin="round" transform="matrix(1.99952,0,0,1.99952,1435.72,22.9945)"
font-family="sans" font-size="11" font-weight="100" font-style="normal" 
>
<path vector-effect="none" fill-rule="nonzero" d="M2.79688,1.98438 L3.70312,1.98438 L0.90625,11.0156 L0,11.0156 L2.79688,1.98438 M8.21875,4.90625 C8.11458,4.84375 7.9974,4.79688 7.86719,4.76562 C7.73698,4.73438 7.59375,4.71875 7.4375,4.71875 C6.875,4.71875 6.44531,4.90104 6.14844,5.26562 C5.85156,5.63021 5.70312,6.15104 5.70312,6.82812 L5.70312,10 L4.70312,10 L4.70312,3.98438 L5.70312,3.98438 L5.70312,4.92188 C5.90104,4.55729 6.16667,4.28646 6.5,4.10938 C6.83333,3.93229 7.23958,3.84375 7.71875,3.84375 C7.79167,3.84375 7.86719,3.84635 7.94531,3.85156 C8.02344,3.85677 8.11458,3.86979 8.21875,3.89062 L8.21875,4.90625 M11.9844,6.96875 C11.1927,6.96875 10.6432,7.0625 10.3359,7.25 C10.0286,7.4375 9.875,7.75 9.875,8.1875 C9.875,8.53125 9.98958,8.80729 10.2188,9.01562 C10.4479,9.22396 10.7604,9.32812 11.1562,9.32812 C11.7083,9.32812 12.1484,9.13281 12.4766,8.74219 C12.8047,8.35156 12.9688,7.83854 12.9688,7.20312 L12.9688,6.96875 L11.9844,6.96875 M13.9531,6.5625 L13.9531,10 L12.9688,10 L12.9688,9.09375 C12.75,9.45833 12.4714,9.72656 12.1328,9.89844 C11.7943,10.0703 11.3802,10.1562 10.8906,10.1562 C10.276,10.1562 9.78646,9.98438 9.42188,9.64062 C9.05729,9.29688 8.875,8.83333 8.875,8.25 C8.875,7.57292 9.10156,7.0625 9.55469,6.71875 C10.0078,6.375 10.6875,6.20312 11.5938,6.20312 L12.9688,6.20312 L12.9688,6.10938 C12.9688,5.65104 12.8203,5.29688 12.5234,5.04688 C12.2266,4.79688 11.8073,4.67188 11.2656,4.67188 C10.9219,4.67188 10.5859,4.71354 10.2578,4.79688 C9.92969,4.88021 9.61458,5.00521 9.3125,5.17188 L9.3125,4.26562 C9.67708,4.11979 10.0312,4.01302 10.375,3.94531 C10.7188,3.8776 11.0469,3.84375 11.3594,3.84375 C12.2344,3.84375 12.8854,4.06771 13.3125,4.51562 C13.7396,4.96354 13.9531,5.64583 13.9531,6.5625 M20.9844,6.375 L20.9844,10 L20,10 L20,6.40625 C20,5.83333 19.8906,5.40625 19.6719,5.125 C19.4531,4.84375 19.1198,4.70312 18.6719,4.70312 C18.1406,4.70312 17.7214,4.8724 17.4141,5.21094 C17.1068,5.54948 16.9531,6.01042 16.9531,6.59375 L16.9531,10 L15.9531,10 L15.9531,3.98438 L16.9531,3.98438 L16.9531,4.92188 C17.1823,4.55729 17.4583,4.28646 17.7812,4.10938 C18.1042,3.93229 18.474,3.84375 18.8906,3.84375 C19.5781,3.84375 20.099,4.05729 20.4531,4.48438 C20.8073,4.91146 20.9844,5.54167 20.9844,6.375 M26.9219,4.89062 L26.9219,1.64062 L27.9062,1.64062 L27.9062,10 L26.9219,10 L26.9219,9.09375 C26.7135,9.45833 26.4505,9.72656 26.1328,9.89844 C25.8151,10.0703 25.4323,10.1562 24.9844,10.1562 C24.2656,10.1562 23.6771,9.86719 23.2188,9.28906 C22.7604,8.71094 22.5312,7.94792 22.5312,7 C22.5312,6.05208 22.7604,5.28906 23.2188,4.71094 C23.6771,4.13281 24.2656,3.84375 24.9844,3.84375 C25.4323,3.84375 25.8151,3.92969 26.1328,4.10156 C26.4505,4.27344 26.7135,4.53646 26.9219,4.89062 M23.5469,7 C23.5469,7.72917 23.6979,8.29948 24,8.71094 C24.3021,9.1224 24.7135,9.32812 25.2344,9.32812 C25.7552,9.32812 26.1667,9.1224 26.4688,8.71094 C26.7708,8.29948 26.9219,7.72917 26.9219,7 C26.9219,6.27083 26.7708,5.70052 26.4688,5.28906 C26.1667,4.8776 25.7552,4.67188 25.2344,4.67188 C24.7135,4.67188 24.3021,4.8776 24,5.28906 C23.6979,5.70052 23.5469,6.27083 23.5469,7 M32.2656,4.67188 C31.7344,4.67188 31.3151,4.88021 31.0078,5.29688 C30.7005,5.71354 30.5469,6.28125 30.5469,7 C30.5469,7.71875 30.6979,8.28385 31,8.69531 C31.3021,9.10677 31.724,9.3125 32.2656,9.3125 C32.7865,9.3125 33.2005,9.10677 33.5078,8.69531 C33.8151,8.28385 33.9688,7.71875 33.9688,7 C33.9688,6.28125 33.8151,5.71354 33.5078,5.29688 C33.2005,4.88021 32.7865,4.67188 32.2656,4.67188 M32.2656,3.84375 C33.1198,3.84375 33.7917,4.1224 34.2812,4.67969 C34.7708,5.23698 35.0156,6.01042 35.0156,7 C35.0156,7.97917 34.7708,8.75 34.2812,9.3125 C33.7917,9.875 33.1198,10.1562 32.2656,10.1562 C31.401,10.1562 30.724,9.875 30.2344,9.3125 C29.7448,8.75 29.5,7.97917 29.5,7 C29.5,6.01042 29.7448,5.23698 30.2344,4.67969 C30.724,4.1224 31.401,3.84375 32.2656,3.84375 M41.3281,5.14062 C41.5781,4.69271 41.875,4.36458 42.2188,4.15625 C42.5625,3.94792 42.9688,3.84375 43.4375,3.84375 C44.0625,3.84375 44.5443,4.0625 44.8828,4.5 C45.2214,4.9375 45.3906,5.5625 45.3906,6.375 L45.3906,10 L44.3906,10 L44.3906,6.40625 C44.3906,5.82292 44.2891,5.39323 44.0859,5.11719 C43.8828,4.84115 43.5729,4.70312 43.1562,4.70312 C42.6458,4.70312 42.2422,4.8724 41.9453,5.21094 C41.6484,5.54948 41.5,6.01042 41.5,6.59375 L41.5,10 L40.5,10 L40.5,6.40625 C40.5,5.82292 40.3984,5.39323 40.1953,5.11719 C39.9922,4.84115 39.6771,4.70312 39.25,4.70312 C38.75,4.70312 38.3516,4.8724 38.0547,5.21094 C37.7578,5.54948 37.6094,6.01042 37.6094,6.59375 L37.6094,10 L36.6094,10 L36.6094,3.98438 L37.6094,3.98438 L37.6094,4.92188 C37.8281,4.54688 38.0964,4.27344 38.4141,4.10156 C38.7318,3.92969 39.1042,3.84375 39.5312,3.84375 C39.9688,3.84375 40.3411,3.95312 40.6484,4.17188 C40.9557,4.39062 41.1823,4.71354 41.3281,5.14062 M51.9219,11.8281 L51.9219,12.5938 L46.2031,12.5938 L46.2031,11.8281 L51.9219,11.8281 M57.8438,6.375 L57.8438,10 L56.8594,10 L56.8594,6.40625 C56.8594,5.83333 56.75,5.40625 56.5312,5.125 C56.3125,4.84375 55.9792,4.70312 55.5312,4.70312 C55,4.70312 54.5807,4.8724 54.2734,5.21094 C53.9661,5.54948 53.8125,6.01042 53.8125,6.59375 L53.8125,10 L52.8125,10 L52.8125,3.98438 L53.8125,3.98438 L53.8125,4.92188 C54.0417,4.55729 54.3177,4.28646 54.6406,4.10938 C54.9635,3.93229 55.3333,3.84375 55.75,3.84375 C56.4375,3.84375 56.9583,4.05729 57.3125,4.48438 C57.6667,4.91146 57.8438,5.54167 57.8438,6.375 M59.7188,7.625 L59.7188,3.98438 L60.7031,3.98438 L60.7031,7.59375 C60.7031,8.15625 60.8151,8.58073 61.0391,8.86719 C61.263,9.15365 61.5938,9.29688 62.0312,9.29688 C62.5729,9.29688 62.9974,9.1276 63.3047,8.78906 C63.612,8.45052 63.7656,7.98438 63.7656,7.39062 L63.7656,3.98438 L64.75,3.98438 L64.75,10 L63.7656,10 L63.7656,9.07812 C63.526,9.44271 63.2474,9.71354 62.9297,9.89062 C62.612,10.0677 62.2448,10.1562 61.8281,10.1562 C61.1406,10.1562 60.6172,9.9401 60.2578,9.50781 C59.8984,9.07552 59.7188,8.44792 59.7188,7.625 M71.4688,5.14062 C71.7188,4.69271 72.0156,4.36458 72.3594,4.15625 C72.7031,3.94792 73.1094,3.84375 73.5781,3.84375 C74.2031,3.84375 74.6849,4.0625 75.0234,4.5 C75.362,4.9375 75.5312,5.5625 75.5312,6.375 L75.5312,10 L74.5312,10 L74.5312,6.40625 C74.5312,5.82292 74.4297,5.39323 74.2266,5.11719 C74.0234,4.84115 73.7135,4.70312 73.2969,4.70312 C72.7865,4.70312 72.3828,4.8724 72.0859,5.21094 C71.7891,5.54948 71.6406,6.01042 71.6406,6.59375 L71.6406,10 L70.6406,10 L70.6406,6.40625 C70.6406,5.82292 70.5391,5.39323 70.3359,5.11719 C70.1328,4.84115 69.8177,4.70312 69.3906,4.70312 C68.8906,4.70312 68.4922,4.8724 68.1953,5.21094 C67.8984,5.54948 67.75,6.01042 67.75,6.59375 L67.75,10 L66.75,10 L66.75,3.98438 L67.75,3.98438 L67.75,4.92188 C67.9688,4.54688 68.237,4.27344 68.5547,4.10156 C68.8724,3.92969 69.2448,3.84375 69.6719,3.84375 C70.1094,3.84375 70.4818,3.95312 70.7891,4.17188 C71.0964,4.39062 71.3229,4.71354 71.4688,5.14062 M82.0625,11.8281 L82.0625,12.5938 L76.3438,12.5938 L76.3438,11.8281 L82.0625,11.8281 M85.7188,6.96875 C84.9271,6.96875 84.3776,7.0625 84.0703,7.25 C83.763,7.4375 83.6094,7.75 83.6094,8.1875 C83.6094,8.53125 83.724,8.80729 83.9531,9.01562 C84.1823,9.22396 84.4948,9.32812 84.8906,9.32812 C85.4427,9.32812 85.8828,9.13281 86.2109,8.74219 C86.5391,8.35156 86.7031,7.83854 86.7031,7.20312 L86.7031,6.96875 L85.7188,6.96875 M87.6875,6.5625 L87.6875,10 L86.7031,10 L86.7031,9.09375 C86.4844,9.45833 86.2057,9.72656 85.8672,9.89844 C85.5286,10.0703 85.1146,10.1562 84.625,10.1562 C84.0104,10.1562 83.5208,9.98438 83.1562,9.64062 C82.7917,9.29688 82.6094,8.83333 82.6094,8.25 C82.6094,7.57292 82.8359,7.0625 83.2891,6.71875 C83.7422,6.375 84.4219,6.20312 85.3281,6.20312 L86.7031,6.20312 L86.7031,6.10938 C86.7031,5.65104 86.5547,5.29688 86.2578,5.04688 C85.9609,4.79688 85.5417,4.67188 85,4.67188 C84.6562,4.67188 84.3203,4.71354 83.9922,4.79688 C83.6641,4.88021 83.349,5.00521 83.0469,5.17188 L83.0469,4.26562 C83.4115,4.11979 83.7656,4.01302 84.1094,3.94531 C84.4531,3.8776 84.7812,3.84375 85.0938,3.84375 C85.9688,3.84375 86.6198,4.06771 87.0469,4.51562 C87.474,4.96354 87.6875,5.64583 87.6875,6.5625 M93.6875,4.89062 L93.6875,1.64062 L94.6719,1.64062 L94.6719,10 L93.6875,10 L93.6875,9.09375 C93.4792,9.45833 93.2161,9.72656 92.8984,9.89844 C92.5807,10.0703 92.1979,10.1562 91.75,10.1562 C91.0312,10.1562 90.4427,9.86719 89.9844,9.28906 C89.526,8.71094 89.2969,7.94792 89.2969,7 C89.2969,6.05208 89.526,5.28906 89.9844,4.71094 C90.4427,4.13281 91.0312,3.84375 91.75,3.84375 C92.1979,3.84375 92.5807,3.92969 92.8984,4.10156 C93.2161,4.27344 93.4792,4.53646 93.6875,4.89062 M90.3125,7 C90.3125,7.72917 90.4635,8.29948 90.7656,8.71094 C91.0677,9.1224 91.4792,9.32812 92,9.32812 C92.5208,9.32812 92.9323,9.1224 93.2344,8.71094 C93.5365,8.29948 93.6875,7.72917 93.6875,7 C93.6875,6.27083 93.5365,5.70052 93.2344,5.28906 C92.9323,4.8776 92.5208,4.67188 92,4.67188 C91.4792,4.67188 91.0677,4.8776 90.7656,5.28906 C90.4635,5.70052 90.3125,6.27083 90.3125,7 M100.656,4.89062 L100.656,1.64062 L101.641,1.64062 L101.641,10 L100.656,10 L100.656,9.09375 C100.448,9.45833 100.185,9.72656 99.8672,9.89844 C99.5495,10.0703 99.1667,10.1562 98.7188,10.1562 C98,10.1562 97.4115,9.86719 96.9531,9.28906 C96.4948,8.71094 96.2656,7.94792 96.2656,7 C96.2656,6.05208 96.4948,5.28906 96.9531,4.71094 C97.4115,4.13281 98,3.84375 98.7188,3.84375 C99.1667,3.84375 99.5495,3.92969 99.8672,4.10156 C100.185,4.27344 100.448,4.53646 100.656,4.89062 M97.2812,7 C97.2812,7.72917 97.4323,8.29948 97.7344,8.71094 C98.0365,9.1224 98.4479,9.32812 98.9688,9.32812 C99.4896,9.32812 99.901,9.1224 100.203,8.71094 C100.505,8.29948 100.656,7.72917 100.656,7 C100.656,6.27083 100.505,5.70052 100.203,5.28906 C99.901,4.8776 99.4896,4.67188 98.9688,4.67188 C98.4479,4.67188 98.0365,4.8776 97.7344,5.28906 C97.4323,5.70052 97.2812,6.27083 97.2812,7 M103.656,3.98438 L104.656,3.98438 L104.656,10 L103.656,10 L103.656,3.98438 M103.656,1.64062 L104.656,1.64062 L104.656,2.89062 L103.656,2.89062 L103.656,1.64062 M107.688,2.28125 L107.688,3.98438 L109.719,3.98438 L109.719,4.75 L107.688,4.75 L107.688,8.01562 C107.688,8.50521 107.755,8.82031 107.891,8.96094 C108.026,9.10156 108.297,9.17188 108.703,9.17188 L109.719,9.17188 L109.719,10 L108.703,10 C107.943,10 107.417,9.85677 107.125,9.57031 C106.833,9.28385 106.688,8.76562 106.688,8.01562 L106.688,4.75 L105.969,4.75 L105.969,3.98438 L106.688,3.98438 L106.688,2.28125 L107.688,2.28125 M111.016,3.98438 L112.016,3.98438 L112.016,10 L111.016,10 L111.016,3.98438 M111.016,1.64062 L112.016,1.64062 L112.016,2.89062 L111.016,2.89062 L111.016,1.64062 M116.406,4.67188 C115.875,4.67188 115.456,4.88021 115.148,5.29688 C114.841,5.71354 114.688,6.28125 114.688,7 C114.688,7.71875 114.839,8.28385 115.141,8.69531 C115.443,9.10677 115.865,9.3125 116.406,9.3125 C116.927,9.3125 117.341,9.10677 117.648,8.69531 C117.956,8.28385 118.109,7.71875 118.109,7 C118.109,6.28125 117.956,5.71354 117.648,5.29688 C117.341,4.88021 116.927,4.67188 116.406,4.67188 M116.406,3.84375 C117.26,3.84375 117.932,4.1224 118.422,4.67969 C118.911,5.23698 119.156,6.01042 119.156,7 C119.156,7.97917 118.911,8.75 118.422,9.3125 C117.932,9.875 117.26,10.1562 116.406,10.1562 C115.542,10.1562 114.865,9.875 114.375,9.3125 C113.885,8.75 113.641,7.97917 113.641,7 C113.641,6.01042 113.885,5.23698 114.375,4.67969 C114.865,4.1224 115.542,3.84375 116.406,3.84375 M125.781,6.375 L125.781,10 L124.797,10 L124.797,6.40625 C124.797,5.83333 124.688,5.40625 124.469,5.125 C124.25,4.84375 123.917,4.70312 123.469,4.70312 C122.938,4.70312 122.518,4.8724 122.211,5.21094 C121.904,5.54948 121.75,6.01042 121.75,6.59375 L121.75,10 L120.75,10 L120.75,3.98438 L121.75,3.98438 L121.75,4.92188 C121.979,4.55729 122.255,4.28646 122.578,4.10938 C122.901,3.93229 123.271,3.84375 123.688,3.84375 C124.375,3.84375 124.896,4.05729 125.25,4.48438 C125.604,4.91146 125.781,5.54167 125.781,6.375 M132.328,11.8281 L132.328,12.5938 L126.609,12.5938 L126.609,11.8281 L132.328,11.8281 M135.984,6.96875 C135.193,6.96875 134.643,7.0625 134.336,7.25 C134.029,7.4375 133.875,7.75 133.875,8.1875 C133.875,8.53125 133.99,8.80729 134.219,9.01562 C134.448,9.22396 134.76,9.32812 135.156,9.32812 C135.708,9.32812 136.148,9.13281 136.477,8.74219 C136.805,8.35156 136.969,7.83854 136.969,7.20312 L136.969,6.96875 L135.984,6.96875 M137.953,6.5625 L137.953,10 L136.969,10 L136.969,9.09375 C136.75,9.45833 136.471,9.72656 136.133,9.89844 C135.794,10.0703 135.38,10.1562 134.891,10.1562 C134.276,10.1562 133.786,9.98438 133.422,9.64062 C133.057,9.29688 132.875,8.83333 132.875,8.25 C132.875,7.57292 133.102,7.0625 133.555,6.71875 C134.008,6.375 134.688,6.20312 135.594,6.20312 L136.969,6.20312 L136.969,6.10938 C136.969,5.65104 136.82,5.29688 136.523,5.04688 C136.227,4.79688 135.807,4.67188 135.266,4.67188 C134.922,4.67188 134.586,4.71354 134.258,4.79688 C133.93,4.88021 133.615,5.00521 133.312,5.17188 L133.312,4.26562 C133.677,4.11979 134.031,4.01302 134.375,3.94531 C134.719,3.8776 135.047,3.84375 135.359,3.84375 C136.234,3.84375 136.885,4.06771 137.312,4.51562 C137.74,4.96354 137.953,5.64583 137.953,6.5625 M143.953,4.89062 L143.953,1.64062 L144.938,1.64062 L144.938,10 L143.953,10 L143.953,9.09375 C143.745,9.45833 143.482,9.72656 143.164,9.89844 C142.846,10.0703 142.464,10.1562 142.016,10.1562 C141.297,10.1562 140.708,9.86719 140.25,9.28906 C139.792,8.71094 139.562,7.94792 139.562,7 C139.562,6.05208 139.792,5.28906 140.25,4.71094 C140.708,4.13281 141.297,3.84375 142.016,3.84375 C142.464,3.84375 142.846,3.92969 143.164,4.10156 C143.482,4.27344 143.745,4.53646 143.953,4.89062 M140.578,7 C140.578,7.72917 140.729,8.29948 141.031,8.71094 C141.333,9.1224 141.745,9.32812 142.266,9.32812 C142.786,9.32812 143.198,9.1224 143.5,8.71094 C143.802,8.29948 143.953,7.72917 143.953,7 C143.953,6.27083 143.802,5.70052 143.5,5.28906 C143.198,4.8776 142.786,4.67188 142.266,4.67188 C141.745,4.67188 141.333,4.8776 141.031,5.28906 C140.729,5.70052 140.578,6.27083 140.578,7 M150.922,4.89062 L150.922,1.64062 L151.906,1.64062 L151.906,10 L150.922,10 L150.922,9.09375 C150.714,9.45833 150.451,9.72656 150.133,9.89844 C149.815,10.0703 149.432,10.1562 148.984,10.1562 C148.266,10.1562 147.677,9.86719 147.219,9.28906 C146.76,8.71094 146.531,7.94792 146.531,7 C146.531,6.05208 146.76,5.28906 147.219,4.71094 C147.677,4.13281 148.266,3.84375 148.984,3.84375 C149.432,3.84375 149.815,3.92969 150.133,4.10156 C150.451,4.27344 150.714,4.53646 150.922,4.89062 M147.547,7 C147.547,7.72917 147.698,8.29948 148,8.71094 C148.302,9.1224 148.714,9.32812 149.234,9.32812 C149.755,9.32812 150.167,9.1224 150.469,8.71094 C150.771,8.29948 150.922,7.72917 150.922,7 C150.922,6.27083 150.771,5.70052 150.469,5.28906 C150.167,4.8776 149.755,4.67188 149.234,4.67188 C148.714,4.67188 148.302,4.8776 148,5.28906 C147.698,5.70052 147.547,6.27083 147.547,7 M158.922,6.375 L158.922,10 L157.938,10 L157.938,6.40625 C157.938,5.83333 157.828,5.40625 157.609,5.125 C157.391,4.84375 157.057,4.70312 156.609,4.70312 C156.078,4.70312 155.659,4.8724 155.352,5.21094 C155.044,5.54948 154.891,6.01042 154.891,6.59375 L154.891,10 L153.891,10 L153.891,3.98438 L154.891,3.98438 L154.891,4.92188 C155.12,4.55729 155.396,4.28646 155.719,4.10938 C156.042,3.93229 156.411,3.84375 156.828,3.84375 C157.516,3.84375 158.036,4.05729 158.391,4.48438 C158.745,4.91146 158.922,5.54167 158.922,6.375 M163.234,4.67188 C162.703,4.67188 162.284,4.88021 161.977,5.29688 C161.669,5.71354 161.516,6.28125 161.516,7 C161.516,7.71875 161.667,8.28385 161.969,8.69531 C162.271,9.10677 162.693,9.3125 163.234,9.3125 C163.755,9.3125 164.169,9.10677 164.477,8.69531 C164.784,8.28385 164.938,7.71875 164.938,7 C164.938,6.28125 164.784,5.71354 164.477,5.29688 C164.169,4.88021 163.755,4.67188 163.234,4.67188 M163.234,3.84375 C164.089,3.84375 164.76,4.1224 165.25,4.67969 C165.74,5.23698 165.984,6.01042 165.984,7 C165.984,7.97917 165.74,8.75 165.25,9.3125 C164.76,9.875 164.089,10.1562 163.234,10.1562 C162.37,10.1562 161.693,9.875 161.203,9.3125 C160.714,8.75 160.469,7.97917 160.469,7 C160.469,6.01042 160.714,5.23698 161.203,4.67969 C161.693,4.1224 162.37,3.84375 163.234,3.84375 M171.578,4.89062 L171.578,1.64062 L172.562,1.64062 L172.562,10 L171.578,10 L171.578,9.09375 C171.37,9.45833 171.107,9.72656 170.789,9.89844 C170.471,10.0703 170.089,10.1562 169.641,10.1562 C168.922,10.1562 168.333,9.86719 167.875,9.28906 C167.417,8.71094 167.188,7.94792 167.188,7 C167.188,6.05208 167.417,5.28906 167.875,4.71094 C168.333,4.13281 168.922,3.84375 169.641,3.84375 C170.089,3.84375 170.471,3.92969 170.789,4.10156 C171.107,4.27344 171.37,4.53646 171.578,4.89062 M168.203,7 C168.203,7.72917 168.354,8.29948 168.656,8.71094 C168.958,9.1224 169.37,9.32812 169.891,9.32812 C170.411,9.32812 170.823,9.1224 171.125,8.71094 C171.427,8.29948 171.578,7.72917 171.578,7 C171.578,6.27083 171.427,5.70052 171.125,5.28906 C170.823,4.8776 170.411,4.67188 169.891,4.67188 C169.37,4.67188 168.958,4.8776 168.656,5.28906 C168.354,5.70052 168.203,6.27083 168.203,7 M179.734,6.75 L179.734,7.23438 L175.188,7.23438 C175.229,7.91146 175.432,8.42708 175.797,8.78125 C176.161,9.13542 176.672,9.3125 177.328,9.3125 C177.714,9.3125 178.083,9.26562 178.438,9.17188 C178.792,9.07812 179.146,8.94271 179.5,8.76562 L179.5,9.6875 C179.146,9.84375 178.781,9.96094 178.406,10.0391 C178.031,10.1172 177.656,10.1562 177.281,10.1562 C176.312,10.1562 175.549,9.8776 174.992,9.32031 C174.435,8.76302 174.156,8.00521 174.156,7.04688 C174.156,6.06771 174.422,5.28906 174.953,4.71094 C175.484,4.13281 176.203,3.84375 177.109,3.84375 C177.911,3.84375 178.549,4.10417 179.023,4.625 C179.497,5.14583 179.734,5.85417 179.734,6.75 M178.734,6.45312 C178.734,5.91146 178.586,5.47917 178.289,5.15625 C177.992,4.83333 177.599,4.67188 177.109,4.67188 C176.557,4.67188 176.117,4.82812 175.789,5.14062 C175.461,5.45312 175.271,5.89062 175.219,6.45312 L178.734,6.45312"/>
</g>

<g fill="none" stroke="#000000" stroke-opacity="1" stroke-width="1" stroke-linecap="square" stroke-linejoin="bevel" transform="matrix(1.99952,0,0,1.99952,1435.72,22.9945)"
font-family="sans" font-size="11" font-weight="100" font-style="normal" 
>
</g>

<g fill="none" stroke="#000000" stroke-opacity="1" stroke-width="1" stroke-linecap="square" stroke-linejoin="bevel" transform="matrix(1.99952,0,0,1.99952,1435.72,22.9945)"
font-family="Ubuntu" font-size="11" font-weight="400" font-style="normal" 
>
</g>

<g fill="none" stroke="#000000" stroke-opacity="1" stroke-width="1" stroke-linecap="square" stroke-linejoin="bevel" transform="matrix(1.99952,0,0,1.99952,-0.00479885,71.9827)"
font-family="Ubuntu" font-size="11" font-weight="400" font-style="normal" 
>
</g>

<g fill="none" stroke="#000000" stroke-opacity="1" stroke-width="1" stroke-linecap="square" stroke-linejoin="bevel" transform="matrix(1.99952,0,0,1.99952,-0.00479885,71.9827)"
font-family="Ubuntu" font-size="11" font-weight="400" font-style="normal" 
>
</g>

<g fill="none" stroke="#000000" stroke-opacity="1" stroke-width="1" stroke-linecap="square" stroke-linejoin="bevel" transform="matrix(1.99952,0,0,1.99952,-0.00479885,71.9827)"
font-family="Ubuntu" font-size="11" font-weight="400" font-style="normal" 
>
</g>

<g fill="none" stroke="#000000" stroke-opacity="1" stroke-width="1" stroke-linecap="square" stroke-linejoin="round" transform="matrix(1.99952,0,0,1.99952,-0.00479885,71.9827)"
font-family="Ubuntu" font-size="11" font-weight="400" font-style="normal" 
>
<ellipse cx="128.04" cy="-18" rx="127.538" ry="17.5"/>
</g>

<g fill="none" stroke="#000000" stroke-opacity="1" stroke-width="1" stroke-linecap="square" stroke-linejoin="bevel" transform="matrix(1.99952,0,0,1.99952,-0.00479885,71.9827)"
font-family="Ubuntu" font-size="11" font-weight="400" font-style="normal" 
>
</g>

<g fill="none" stroke="#000000" stroke-opacity="1" stroke-width="1" stroke-linecap="square" stroke-linejoin="bevel" transform="matrix(1.99952,0,0,1.99952,75.7132,22.9945)"
font-family="Ubuntu" font-size="11" font-weight="400" font-style="normal" 
>
</g>

<g fill="none" stroke="#000000" stroke-opacity="1" stroke-width="1" stroke-linecap="square" stroke-linejoin="bevel" transform="matrix(1.99952,0,0,1.99952,75.7132,22.9945)"
font-family="sans" font-size="11" font-weight="100" font-style="normal" 
>
</g>

<g fill="#000000" fill-opacity="1" stroke="#000000" stroke-opacity="1" stroke-width="1" stroke-linecap="square" stroke-linejoin="round" transform="matrix(1.99952,0,0,1.99952,75.7132,22.9945)"
font-family="sans" font-size="11" font-weight="100" font-style="normal" 
>
<path vector-effect="none" fill-rule="nonzero" d="M2.79688,1.98438 L3.70312,1.98438 L0.90625,11.0156 L0,11.0156 L2.79688,1.98438 M8.21875,4.90625 C8.11458,4.84375 7.9974,4.79688 7.86719,4.76562 C7.73698,4.73438 7.59375,4.71875 7.4375,4.71875 C6.875,4.71875 6.44531,4.90104 6.14844,5.26562 C5.85156,5.63021 5.70312,6.15104 5.70312,6.82812 L5.70312,10 L4.70312,10 L4.70312,3.98438 L5.70312,3.98438 L5.70312,4.92188 C5.90104,4.55729 6.16667,4.28646 6.5,4.10938 C6.83333,3.93229 7.23958,3.84375 7.71875,3.84375 C7.79167,3.84375 7.86719,3.84635 7.94531,3.85156 C8.02344,3.85677 8.11458,3.86979 8.21875,3.89062 L8.21875,4.90625 M11.9844,6.96875 C11.1927,6.96875 10.6432,7.0625 10.3359,7.25 C10.0286,7.4375 9.875,7.75 9.875,8.1875 C9.875,8.53125 9.98958,8.80729 10.2188,9.01562 C10.4479,9.22396 10.7604,9.32812 11.1562,9.32812 C11.7083,9.32812 12.1484,9.13281 12.4766,8.74219 C12.8047,8.35156 12.9688,7.83854 12.9688,7.20312 L12.9688,6.96875 L11.9844,6.96875 M13.9531,6.5625 L13.9531,10 L12.9688,10 L12.9688,9.09375 C12.75,9.45833 12.4714,9.72656 12.1328,9.89844 C11.7943,10.0703 11.3802,10.1562 10.8906,10.1562 C10.276,10.1562 9.78646,9.98438 9.42188,9.64062 C9.05729,9.29688 8.875,8.83333 8.875,8.25 C8.875,7.57292 9.10156,7.0625 9.55469,6.71875 C10.0078,6.375 10.6875,6.20312 11.5938,6.20312 L12.9688,6.20312 L12.9688,6.10938 C12.9688,5.65104 12.8203,5.29688 12.5234,5.04688 C12.2266,4.79688 11.8073,4.67188 11.2656,4.67188 C10.9219,4.67188 10.5859,4.71354 10.2578,4.79688 C9.92969,4.88021 9.61458,5.00521 9.3125,5.17188 L9.3125,4.26562 C9.67708,4.11979 10.0312,4.01302 10.375,3.94531 C10.7188,3.8776 11.0469,3.84375 11.3594,3.84375 C12.2344,3.84375 12.8854,4.06771 13.3125,4.51562 C13.7396,4.96354 13.9531,5.64583 13.9531,6.5625 M20.9844,6.375 L20.9844,10 L20,10 L20,6.40625 C20,5.83333 19.8906,5.40625 19.6719,5.125 C19.4531,4.84375 19.1198,4.70312 18.6719,4.70312 C18.1406,4.70312 17.7214,4.8724 17.4141,5.21094 C17.1068,5.54948 16.9531,6.01042 16.9531,6.59375 L16.9531,10 L15.9531,10 L15.9531,3.98438 L16.9531,3.98438 L16.9531,4.92188 C17.1823,4.55729 17.4583,4.28646 17.7812,4.10938 C18.1042,3.93229 18.474,3.84375 18.8906,3.84375 C19.5781,3.84375 20.099,4.05729 20.4531,4.48438 C20.8073,4.91146 20.9844,5.54167 20.9844,6.375 M26.9219,4.89062 L26.9219,1.64062 L27.9062,1.64062 L27.9062,10 L26.9219,10 L26.9219,9.09375 C26.7135,9.45833 26.4505,9.72656 26.1328,9.89844 C25.8151,10.0703 25.4323,10.1562 24.9844,10.1562 C24.2656,10.1562 23.6771,9.86719 23.2188,9.28906 C22.7604,8.71094 22.5312,7.94792 22.5312,7 C22.5312,6.05208 22.7604,5.28906 23.2188,4.71094 C23.6771,4.13281 24.2656,3.84375 24.9844,3.84375 C25.4323,3.84375 25.8151,3.92969 26.1328,4.10156 C26.4505,4.27344 26.7135,4.53646 26.9219,4.89062 M23.5469,7 C23.5469,7.72917 23.6979,8.29948 24,8.71094 C24.3021,9.1224 24.7135,9.32812 25.2344,9.32812 C25.7552,9.32812 26.1667,9.1224 26.4688,8.71094 C26.7708,8.29948 26.9219,7.72917 26.9219,7 C26.9219,6.27083 26.7708,5.70052 26.4688,5.28906 C26.1667,4.8776 25.7552,4.67188 25.2344,4.67188 C24.7135,4.67188 24.3021,4.8776 24,5.28906 C23.6979,5.70052 23.5469,6.27083 23.5469,7 M32.2656,4.67188 C31.7344,4.67188 31.3151,4.88021 31.0078,5.29688 C30.7005,5.71354 30.5469,6.28125 30.5469,7 C30.5469,7.71875 30.6979,8.28385 31,8.69531 C31.3021,9.10677 31.724,9.3125 32.2656,9.3125 C32.7865,9.3125 33.2005,9.10677 33.5078,8.69531 C33.8151,8.28385 33.9688,7.71875 33.9688,7 C33.9688,6.28125 33.8151,5.71354 33.5078,5.29688 C33.2005,4.88021 32.7865,4.67188 32.2656,4.67188 M32.2656,3.84375 C33.1198,3.84375 33.7917,4.1224 34.2812,4.67969 C34.7708,5.23698 35.0156,6.01042 35.0156,7 C35.0156,7.97917 34.7708,8.75 34.2812,9.3125 C33.7917,9.875 33.1198,10.1562 32.2656,10.1562 C31.401,10.1562 30.724,9.875 30.2344,9.3125 C29.7448,8.75 29.5,7.97917 29.5,7 C29.5,6.01042 29.7448,5.23698 30.2344,4.67969 C30.724,4.1224 31.401,3.84375 32.2656,3.84375 M41.3281,5.14062 C41.5781,4.69271 41.875,4.36458 42.2188,4.15625 C42.5625,3.94792 42.9688,3.84375 43.4375,3.84375 C44.0625,3.84375 44.5443,4.0625 44.8828,4.5 C45.2214,4.9375 45.3906,5.5625 45.3906,6.375 L45.3906,10 L44.3906,10 L44.3906,6.40625 C44.3906,5.82292 44.2891,5.39323 44.0859,5.11719 C43.8828,4.84115 43.5729,4.70312 43.1562,4.70312 C42.6458,4.70312 42.2422,4.8724 41.9453,5.21094 C41.6484,5.54948 41.5,6.01042 41.5,6.59375 L41.5,10 L40.5,10 L40.5,6.40625 C40.5,5.82292 40.3984,5.39323 40.1953,5.11719 C39.9922,4.84115 39.6771,4.70312 39.25,4.70312 C38.75,4.70312 38.3516,4.8724 38.0547,5.21094 C37.7578,5.54948 37.6094,6.01042 37.6094,6.59375 L37.6094,10 L36.6094,10 L36.6094,3.98438 L37.6094,3.98438 L37.6094,4.92188 C37.8281,4.54688 38.0964,4.27344 38.4141,4.10156 C38.7318,3.92969 39.1042,3.84375 39.5312,3.84375 C39.9688,3.84375 40.3411,3.95312 40.6484,4.17188 C40.9557,4.39062 41.1823,4.71354 41.3281,5.14062 M51.9219,11.8281 L51.9219,12.5938 L46.2031,12.5938 L46.2031,11.8281 L51.9219,11.8281 M57.8438,6.375 L57.8438,10 L56.8594,10 L56.8594,6.40625 C56.8594,5.83333 56.75,5.40625 56.5312,5.125 C56.3125,4.84375 55.9792,4.70312 55.5312,4.70312 C55,4.70312 54.5807,4.8724 54.2734,5.21094 C53.9661,5.54948 53.8125,6.01042 53.8125,6.59375 L53.8125,10 L52.8125,10 L52.8125,3.98438 L53.8125,3.98438 L53.8125,4.92188 C54.0417,4.55729 54.3177,4.28646 54.6406,4.10938 C54.9635,3.93229 55.3333,3.84375 55.75,3.84375 C56.4375,3.84375 56.9583,4.05729 57.3125,4.48438 C57.6667,4.91146 57.8438,5.54167 57.8438,6.375 M59.7188,7.625 L59.7188,3.98438 L60.7031,3.98438 L60.7031,7.59375 C60.7031,8.15625 60.8151,8.58073 61.0391,8.86719 C61.263,9.15365 61.5938,9.29688 62.0312,9.29688 C62.5729,9.29688 62.9974,9.1276 63.3047,8.78906 C63.612,8.45052 63.7656,7.98438 63.7656,7.39062 L63.7656,3.98438 L64.75,3.98438 L64.75,10 L63.7656,10 L63.7656,9.07812 C63.526,9.44271 63.2474,9.71354 62.9297,9.89062 C62.612,10.0677 62.2448,10.1562 61.8281,10.1562 C61.1406,10.1562 60.6172,9.9401 60.2578,9.50781 C59.8984,9.07552 59.7188,8.44792 59.7188,7.625 M71.4688,5.14062 C71.7188,4.69271 72.0156,4.36458 72.3594,4.15625 C72.7031,3.94792 73.1094,3.84375 73.5781,3.84375 C74.2031,3.84375 74.6849,4.0625 75.0234,4.5 C75.362,4.9375 75.5312,5.5625 75.5312,6.375 L75.5312,10 L74.5312,10 L74.5312,6.40625 C74.5312,5.82292 74.4297,5.39323 74.2266,5.11719 C74.0234,4.84115 73.7135,4.70312 73.2969,4.70312 C72.7865,4.70312 72.3828,4.8724 72.0859,5.21094 C71.7891,5.54948 71.6406,6.01042 71.6406,6.59375 L71.6406,10 L70.6406,10 L70.6406,6.40625 C70.6406,5.82292 70.5391,5.39323 70.3359,5.11719 C70.1328,4.84115 69.8177,4.70312 69.3906,4.70312 C68.8906,4.70312 68.4922,4.8724 68.1953,5.21094 C67.8984,5.54948 67.75,6.01042 67.75,6.59375 L67.75,10 L66.75,10 L66.75,3.98438 L67.75,3.98438 L67.75,4.92188 C67.9688,4.54688 68.237,4.27344 68.5547,4.10156 C68.8724,3.92969 69.2448,3.84375 69.6719,3.84375 C70.1094,3.84375 70.4818,3.95312 70.7891,4.17188 C71.0964,4.39062 71.3229,4.71354 71.4688,5.14062 M82.0625,11.8281 L82.0625,12.5938 L76.3438,12.5938 L76.3438,11.8281 L82.0625,11.8281 M85.7188,6.96875 C84.9271,6.96875 84.3776,7.0625 84.0703,7.25 C83.763,7.4375 83.6094,7.75 83.6094,8.1875 C83.6094,8.53125 83.724,8.80729 83.9531,9.01562 C84.1823,9.22396 84.4948,9.32812 84.8906,9.32812 C85.4427,9.32812 85.8828,9.13281 86.2109,8.74219 C86.5391,8.35156 86.7031,7.83854 86.7031,7.20312 L86.7031,6.96875 L85.7188,6.96875 M87.6875,6.5625 L87.6875,10 L86.7031,10 L86.7031,9.09375 C86.4844,9.45833 86.2057,9.72656 85.8672,9.89844 C85.5286,10.0703 85.1146,10.1562 84.625,10.1562 C84.0104,10.1562 83.5208,9.98438 83.1562,9.64062 C82.7917,9.29688 82.6094,8.83333 82.6094,8.25 C82.6094,7.57292 82.8359,7.0625 83.2891,6.71875 C83.7422,6.375 84.4219,6.20312 85.3281,6.20312 L86.7031,6.20312 L86.7031,6.10938 C86.7031,5.65104 86.5547,5.29688 86.2578,5.04688 C85.9609,4.79688 85.5417,4.67188 85,4.67188 C84.6562,4.67188 84.3203,4.71354 83.9922,4.79688 C83.6641,4.88021 83.349,5.00521 83.0469,5.17188 L83.0469,4.26562 C83.4115,4.11979 83.7656,4.01302 84.1094,3.94531 C84.4531,3.8776 84.7812,3.84375 85.0938,3.84375 C85.9688,3.84375 86.6198,4.06771 87.0469,4.51562 C87.474,4.96354 87.6875,5.64583 87.6875,6.5625 M93.6875,4.89062 L93.6875,1.64062 L94.6719,1.64062 L94.6719,10 L93.6875,10 L93.6875,9.09375 C93.4792,9.45833 93.2161,9.72656 92.8984,9.89844 C92.5807,10.0703 92.1979,10.1562 91.75,10.1562 C91.0312,10.1562 90.4427,9.86719 89.9844,9.28906 C89.526,8.71094 89.2969,7.94792 89.2969,7 C89.2969,6.05208 89.526,5.28906 89.9844,4.71094 C90.4427,4.13281 91.0312,3.84375 91.75,3.84375 C92.1979,3.84375 92.5807,3.92969 92.8984,4.10156 C93.2161,4.27344 93.4792,4.53646 93.6875,4.89062 M90.3125,7 C90.3125,7.72917 90.4635,8.29948 90.7656,8.71094 C91.0677,9.1224 91.4792,9.32812 92,9.32812 C92.5208,9.32812 92.9323,9.1224 93.2344,8.71094 C93.5365,8.29948 93.6875,7.72917 93.6875,7 C93.6875,6.27083 93.5365,5.70052 93.2344,5.28906 C92.9323,4.8776 92.5208,4.67188 92,4.67188 C91.4792,4.67188 91.0677,4.8776 90.7656,5.28906 C90.4635,5.70052 90.3125,6.27083 90.3125,7 M100.656,4.89062 L100.656,1.64062 L101.641,1.64062 L101.641,10 L100.656,10 L100.656,9.09375 C100.448,9.45833 100.185,9.72656 99.8672,9.89844 C99.5495,10.0703 99.1667,10.1562 98.7188,10.1562 C98,10.1562 97.4115,9.86719 96.9531,9.28906 C96.4948,8.71094 96.2656,7.94792 96.2656,7 C96.2656,6.05208 96.4948,5.28906 96.9531,4.71094 C97.4115,4.13281 98,3.84375 98.7188,3.84375 C99.1667,3.84375 99.5495,3.92969 99.8672,4.10156 C100.185,4.27344 100.448,4.53646 100.656,4.89062 M97.2812,7 C97.2812,7.72917 97.4323,8.29948 97.7344,8.71094 C98.0365,9.1224 98.4479,9.32812 98.9688,9.32812 C99.4896,9.32812 99.901,9.1224 100.203,8.71094 C100.505,8.29948 100.656,7.72917 100.656,7 C100.656,6.27083 100.505,5.70052 100.203,5.28906 C99.901,4.8776 99.4896,4.67188 98.9688,4.67188 C98.4479,4.67188 98.0365,4.8776 97.7344,5.28906 C97.4323,5.70052 97.2812,6.27083 97.2812,7 M103.656,3.98438 L104.656,3.98438 L104.656,10 L103.656,10 L103.656,3.98438 M103.656,1.64062 L104.656,1.64062 L104.656,2.89062 L103.656,2.89062 L103.656,1.64062 M107.688,2.28125 L107.688,3.98438 L109.719,3.98438 L109.719,4.75 L107.688,4.75 L107.688,8.01562 C107.688,8.50521 107.755,8.82031 107.891,8.96094 C108.026,9.10156 108.297,9.17188 108.703,9.17188 L109.719,9.17188 L109.719,10 L108.703,10 C107.943,10 107.417,9.85677 107.125,9.57031 C106.833,9.28385 106.688,8.76562 106.688,8.01562 L106.688,4.75 L105.969,4.75 L105.969,3.98438 L106.688,3.98438 L106.688,2.28125 L107.688,2.28125 M111.016,3.98438 L112.016,3.98438 L112.016,10 L111.016,10 L111.016,3.98438 M111.016,1.64062 L112.016,1.64062 L112.016,2.89062 L111.016,2.89062 L111.016,1.64062 M116.406,4.67188 C115.875,4.67188 115.456,4.88021 115.148,5.29688 C114.841,5.71354 114.688,6.28125 114.688,7 C114.688,7.71875 114.839,8.28385 115.141,8.69531 C115.443,9.10677 115.865,9.3125 116.406,9.3125 C116.927,9.3125 117.341,9.10677 117.648,8.69531 C117.956,8.28385 118.109,7.71875 118.109,7 C118.109,6.28125 117.956,5.71354 117.648,5.29688 C117.341,4.88021 116.927,4.67188 116.406,4.67188 M116.406,3.84375 C117.26,3.84375 117.932,4.1224 118.422,4.67969 C118.911,5.23698 119.156,6.01042 119.156,7 C119.156,7.97917 118.911,8.75 118.422,9.3125 C117.932,9.875 117.26,10.1562 116.406,10.1562 C115.542,10.1562 114.865,9.875 114.375,9.3125 C113.885,8.75 113.641,7.97917 113.641,7 C113.641,6.01042 113.885,5.23698 114.375,4.67969 C114.865,4.1224 115.542,3.84375 116.406,3.84375 M125.781,6.375 L125.781,10 L124.797,10 L124.797,6.40625 C124.797,5.83333 124.688,5.40625 124.469,5.125 C124.25,4.84375 123.917,4.70312 123.469,4.70312 C122.938,4.70312 122.518,4.8724 122.211,5.21094 C121.904,5.54948 121.75,6.01042 121.75,6.59375 L121.75,10 L120.75,10 L120.75,3.98438 L121.75,3.98438 L121.75,4.92188 C121.979,4.55729 122.255,4.28646 122.578,4.10938 C122.901,3.93229 123.271,3.84375 123.688,3.84375 C124.375,3.84375 124.896,4.05729 125.25,4.48438 C125.604,4.91146 125.781,5.54167 125.781,6.375 M132.328,11.8281 L132.328,12.5938 L126.609,12.5938 L126.609,11.8281 L132.328,11.8281 M137.219,6.92188 C137.219,6.20312 137.07,5.64844 136.773,5.25781 C136.477,4.86719 136.062,4.67188 135.531,4.67188 C135,4.67188 134.586,4.86719 134.289,5.25781 C133.992,5.64844 133.844,6.20312 133.844,6.92188 C133.844,7.63021 133.992,8.18229 134.289,8.57812 C134.586,8.97396 135,9.17188 135.531,9.17188 C136.062,9.17188 136.477,8.97396 136.773,8.57812 C137.07,8.18229 137.219,7.63021 137.219,6.92188 M138.203,9.25 C138.203,10.2812 137.977,11.0443 137.523,11.5391 C137.07,12.0339 136.375,12.2812 135.438,12.2812 C135.083,12.2812 134.753,12.2552 134.445,12.2031 C134.138,12.151 133.839,12.0729 133.547,11.9688 L133.547,11.0156 C133.839,11.1719 134.125,11.2865 134.406,11.3594 C134.688,11.4323 134.979,11.4688 135.281,11.4688 C135.927,11.4688 136.411,11.2995 136.734,10.9609 C137.057,10.6224 137.219,10.1146 137.219,9.4375 L137.219,8.9375 C137.01,9.29167 136.747,9.55729 136.43,9.73438 C136.112,9.91146 135.729,10 135.281,10 C134.542,10 133.948,9.71875 133.5,9.15625 C133.052,8.59375 132.828,7.84896 132.828,6.92188 C132.828,5.99479 133.052,5.25 133.5,4.6875 C133.948,4.125 134.542,3.84375 135.281,3.84375 C135.729,3.84375 136.112,3.92969 136.43,4.10156 C136.747,4.27344 137.01,4.53646 137.219,4.89062 L137.219,3.98438 L138.203,3.98438 L138.203,9.25 M145.375,6.75 L145.375,7.23438 L140.828,7.23438 C140.87,7.91146 141.073,8.42708 141.438,8.78125 C141.802,9.13542 142.312,9.3125 142.969,9.3125 C143.354,9.3125 143.724,9.26562 144.078,9.17188 C144.432,9.07812 144.786,8.94271 145.141,8.76562 L145.141,9.6875 C144.786,9.84375 144.422,9.96094 144.047,10.0391 C143.672,10.1172 143.297,10.1562 142.922,10.1562 C141.953,10.1562 141.19,9.8776 140.633,9.32031 C140.076,8.76302 139.797,8.00521 139.797,7.04688 C139.797,6.06771 140.062,5.28906 140.594,4.71094 C141.125,4.13281 141.844,3.84375 142.75,3.84375 C143.552,3.84375 144.19,4.10417 144.664,4.625 C145.138,5.14583 145.375,5.85417 145.375,6.75 M144.375,6.45312 C144.375,5.91146 144.227,5.47917 143.93,5.15625 C143.633,4.83333 143.24,4.67188 142.75,4.67188 C142.198,4.67188 141.758,4.82812 141.43,5.14062 C141.102,5.45312 140.911,5.89062 140.859,6.45312 L144.375,6.45312 M151.984,6.375 L151.984,10 L151,10 L151,6.40625 C151,5.83333 150.891,5.40625 150.672,5.125 C150.453,4.84375 150.12,4.70312 149.672,4.70312 C149.141,4.70312 148.721,4.8724 148.414,5.21094 C148.107,5.54948 147.953,6.01042 147.953,6.59375 L147.953,10 L146.953,10 L146.953,3.98438 L147.953,3.98438 L147.953,4.92188 C148.182,4.55729 148.458,4.28646 148.781,4.10938 C149.104,3.93229 149.474,3.84375 149.891,3.84375 C150.578,3.84375 151.099,4.05729 151.453,4.48438 C151.807,4.91146 151.984,5.54167 151.984,6.375 M158.953,6.375 L158.953,10 L157.969,10 L157.969,6.40625 C157.969,5.83333 157.859,5.40625 157.641,5.125 C157.422,4.84375 157.089,4.70312 156.641,4.70312 C156.109,4.70312 155.69,4.8724 155.383,5.21094 C155.076,5.54948 154.922,6.01042 154.922,6.59375 L154.922,10 L153.922,10 L153.922,3.98438 L154.922,3.98438 L154.922,4.92188 C155.151,4.55729 155.427,4.28646 155.75,4.10938 C156.073,3.93229 156.443,3.84375 156.859,3.84375 C157.547,3.84375 158.068,4.05729 158.422,4.48438 C158.776,4.91146 158.953,5.54167 158.953,6.375 M163.266,4.67188 C162.734,4.67188 162.315,4.88021 162.008,5.29688 C161.701,5.71354 161.547,6.28125 161.547,7 C161.547,7.71875 161.698,8.28385 162,8.69531 C162.302,9.10677 162.724,9.3125 163.266,9.3125 C163.786,9.3125 164.201,9.10677 164.508,8.69531 C164.815,8.28385 164.969,7.71875 164.969,7 C164.969,6.28125 164.815,5.71354 164.508,5.29688 C164.201,4.88021 163.786,4.67188 163.266,4.67188 M163.266,3.84375 C164.12,3.84375 164.792,4.1224 165.281,4.67969 C165.771,5.23698 166.016,6.01042 166.016,7 C166.016,7.97917 165.771,8.75 165.281,9.3125 C164.792,9.875 164.12,10.1562 163.266,10.1562 C162.401,10.1562 161.724,9.875 161.234,9.3125 C160.745,8.75 160.5,7.97917 160.5,7 C160.5,6.01042 160.745,5.23698 161.234,4.67969 C161.724,4.1224 162.401,3.84375 163.266,3.84375 M171.609,4.89062 L171.609,1.64062 L172.594,1.64062 L172.594,10 L171.609,10 L171.609,9.09375 C171.401,9.45833 171.138,9.72656 170.82,9.89844 C170.503,10.0703 170.12,10.1562 169.672,10.1562 C168.953,10.1562 168.365,9.86719 167.906,9.28906 C167.448,8.71094 167.219,7.94792 167.219,7 C167.219,6.05208 167.448,5.28906 167.906,4.71094 C168.365,4.13281 168.953,3.84375 169.672,3.84375 C170.12,3.84375 170.503,3.92969 170.82,4.10156 C171.138,4.27344 171.401,4.53646 171.609,4.89062 M168.234,7 C168.234,7.72917 168.385,8.29948 168.688,8.71094 C168.99,9.1224 169.401,9.32812 169.922,9.32812 C170.443,9.32812 170.854,9.1224 171.156,8.71094 C171.458,8.29948 171.609,7.72917 171.609,7 C171.609,6.27083 171.458,5.70052 171.156,5.28906 C170.854,4.8776 170.443,4.67188 169.922,4.67188 C169.401,4.67188 168.99,4.8776 168.688,5.28906 C168.385,5.70052 168.234,6.27083 168.234,7 M179.766,6.75 L179.766,7.23438 L175.219,7.23438 C175.26,7.91146 175.464,8.42708 175.828,8.78125 C176.193,9.13542 176.703,9.3125 177.359,9.3125 C177.745,9.3125 178.115,9.26562 178.469,9.17188 C178.823,9.07812 179.177,8.94271 179.531,8.76562 L179.531,9.6875 C179.177,9.84375 178.812,9.96094 178.438,10.0391 C178.062,10.1172 177.688,10.1562 177.312,10.1562 C176.344,10.1562 175.581,9.8776 175.023,9.32031 C174.466,8.76302 174.188,8.00521 174.188,7.04688 C174.188,6.06771 174.453,5.28906 174.984,4.71094 C175.516,4.13281 176.234,3.84375 177.141,3.84375 C177.943,3.84375 178.581,4.10417 179.055,4.625 C179.529,5.14583 179.766,5.85417 179.766,6.75 M178.766,6.45312 C178.766,5.91146 178.617,5.47917 178.32,5.15625 C178.023,4.83333 177.63,4.67188 177.141,4.67188 C176.589,4.67188 176.148,4.82812 175.82,5.14062 C175.492,5.45312 175.302,5.89062 175.25,6.45312 L178.766,6.45312"/>
</g>

<g fill="none" stroke="#000000" stroke-opacity="1" stroke-width="1" stroke-linecap="square" stroke-linejoin="bevel" transform="matrix(1.99952,0,0,1.99952,75.7132,22.9945)"
font-family="sans" font-size="11" font-weight="100" font-style="normal" 
>
</g>

<g fill="none" stroke="#000000" stroke-opacity="1" stroke-width="1" stroke-linecap="square" stroke-linejoin="bevel" transform="matrix(1.99952,0,0,1.99952,75.7132,22.9945)"
font-family="Ubuntu" font-size="11" font-weight="400" font-style="normal" 
>
</g>

<g fill="none" stroke="#000000" stroke-opacity="1" stroke-width="1" stroke-linecap="square" stroke-linejoin="bevel" transform="matrix(1.99952,0,0,1.99952,-0.00479885,71.9827)"
font-family="Ubuntu" font-size="11" font-weight="400" font-style="normal" 
>
</g>

<g fill="none" stroke="#000000" stroke-opacity="1" stroke-width="1" stroke-linecap="square" stroke-linejoin="bevel" transform="matrix(1.99952,0,0,1.99952,-0.00479885,71.9827)"
font-family="Ubuntu" font-size="11" font-weight="400" font-style="normal" 
>
</g>

<g fill="none" stroke="#000000" stroke-opacity="1" stroke-width="1" stroke-linecap="square" stroke-linejoin="bevel" transform="matrix(1.99952,0,0,1.99952,-0.00479885,71.9827)"
font-family="Ubuntu" font-size="11" font-weight="400" font-style="normal" 
>
</g>

<g fill="none" stroke="#000000" stroke-opacity="1" stroke-width="1" stroke-linecap="square" stroke-linejoin="round" transform="matrix(1.99952,0,0,1.99952,-0.00479885,71.9827)"
font-family="Ubuntu" font-size="11" font-weight="400" font-style="normal" 
>
<path vector-effect="none" fill-rule="evenodd" d="M612.28,-18 C631.35,-18 650.92,-18 669.94,-18 "/>
</g>

<g fill="none" stroke="#000000" stroke-opacity="1" stroke-width="1" stroke-linecap="square" stroke-linejoin="bevel" transform="matrix(1.99952,0,0,1.99952,-0.00479885,71.9827)"
font-family="Ubuntu" font-size="11" font-weight="400" font-style="normal" 
>
</g>

<g fill="none" stroke="#000000" stroke-opacity="1" stroke-width="1" stroke-linecap="square" stroke-linejoin="bevel" transform="matrix(1.99952,0,0,1.99952,1242.75,7.99808)"
font-family="Ubuntu" font-size="11" font-weight="400" font-style="normal" 
>
</g>

<g fill="none" stroke="#000000" stroke-opacity="1" stroke-width="1" stroke-linecap="square" stroke-linejoin="bevel" transform="matrix(1.99952,0,0,1.99952,1242.75,7.99808)"
font-family="sans" font-size="11" font-weight="100" font-style="normal" 
>
</g>

<g fill="#000000" fill-opacity="1" stroke="#000000" stroke-opacity="1" stroke-width="1" stroke-linecap="square" stroke-linejoin="round" transform="matrix(1.99952,0,0,1.99952,1242.75,7.99808)"
font-family="sans" font-size="11" font-weight="100" font-style="normal" 
>
<path vector-effect="none" fill-rule="nonzero" d="M2.79688,1.98438 L3.70312,1.98438 L0.90625,11.0156 L0,11.0156 L2.79688,1.98438 M7.46875,3.04688 L5.98438,7.04688 L8.9375,7.04688 L7.46875,3.04688 M6.84375,1.98438 L8.07812,1.98438 L11.1406,10 L10.0156,10 L9.28125,7.9375 L5.65625,7.9375 L4.9375,10 L3.79688,10 L6.84375,1.98438 M16.2188,4.89062 L16.2188,1.64062 L17.2031,1.64062 L17.2031,10 L16.2188,10 L16.2188,9.09375 C16.0104,9.45833 15.7474,9.72656 15.4297,9.89844 C15.112,10.0703 14.7292,10.1562 14.2812,10.1562 C13.5625,10.1562 12.974,9.86719 12.5156,9.28906 C12.0573,8.71094 11.8281,7.94792 11.8281,7 C11.8281,6.05208 12.0573,5.28906 12.5156,4.71094 C12.974,4.13281 13.5625,3.84375 14.2812,3.84375 C14.7292,3.84375 15.112,3.92969 15.4297,4.10156 C15.7474,4.27344 16.0104,4.53646 16.2188,4.89062 M12.8438,7 C12.8438,7.72917 12.9948,8.29948 13.2969,8.71094 C13.599,9.1224 14.0104,9.32812 14.5312,9.32812 C15.0521,9.32812 15.4635,9.1224 15.7656,8.71094 C16.0677,8.29948 16.2188,7.72917 16.2188,7 C16.2188,6.27083 16.0677,5.70052 15.7656,5.28906 C15.4635,4.8776 15.0521,4.67188 14.5312,4.67188 C14.0104,4.67188 13.599,4.8776 13.2969,5.28906 C12.9948,5.70052 12.8438,6.27083 12.8438,7 M23.1875,4.89062 L23.1875,1.64062 L24.1719,1.64062 L24.1719,10 L23.1875,10 L23.1875,9.09375 C22.9792,9.45833 22.7161,9.72656 22.3984,9.89844 C22.0807,10.0703 21.6979,10.1562 21.25,10.1562 C20.5312,10.1562 19.9427,9.86719 19.4844,9.28906 C19.026,8.71094 18.7969,7.94792 18.7969,7 C18.7969,6.05208 19.026,5.28906 19.4844,4.71094 C19.9427,4.13281 20.5312,3.84375 21.25,3.84375 C21.6979,3.84375 22.0807,3.92969 22.3984,4.10156 C22.7161,4.27344 22.9792,4.53646 23.1875,4.89062 M19.8125,7 C19.8125,7.72917 19.9635,8.29948 20.2656,8.71094 C20.5677,9.1224 20.9792,9.32812 21.5,9.32812 C22.0208,9.32812 22.4323,9.1224 22.7344,8.71094 C23.0365,8.29948 23.1875,7.72917 23.1875,7 C23.1875,6.27083 23.0365,5.70052 22.7344,5.28906 C22.4323,4.8776 22.0208,4.67188 21.5,4.67188 C20.9792,4.67188 20.5677,4.8776 20.2656,5.28906 C19.9635,5.70052 19.8125,6.27083 19.8125,7 M26.1875,3.98438 L27.1875,3.98438 L27.1875,10 L26.1875,10 L26.1875,3.98438 M26.1875,1.64062 L27.1875,1.64062 L27.1875,2.89062 L26.1875,2.89062 L26.1875,1.64062 M30.2188,2.28125 L30.2188,3.98438 L32.25,3.98438 L32.25,4.75 L30.2188,4.75 L30.2188,8.01562 C30.2188,8.50521 30.2865,8.82031 30.4219,8.96094 C30.5573,9.10156 30.8281,9.17188 31.2344,9.17188 L32.25,9.17188 L32.25,10 L31.2344,10 C30.474,10 29.9479,9.85677 29.6562,9.57031 C29.3646,9.28385 29.2188,8.76562 29.2188,8.01562 L29.2188,4.75 L28.5,4.75 L28.5,3.98438 L29.2188,3.98438 L29.2188,2.28125 L30.2188,2.28125 M33.5469,3.98438 L34.5469,3.98438 L34.5469,10 L33.5469,10 L33.5469,3.98438 M33.5469,1.64062 L34.5469,1.64062 L34.5469,2.89062 L33.5469,2.89062 L33.5469,1.64062 M38.9375,4.67188 C38.4062,4.67188 37.987,4.88021 37.6797,5.29688 C37.3724,5.71354 37.2188,6.28125 37.2188,7 C37.2188,7.71875 37.3698,8.28385 37.6719,8.69531 C37.974,9.10677 38.3958,9.3125 38.9375,9.3125 C39.4583,9.3125 39.8724,9.10677 40.1797,8.69531 C40.487,8.28385 40.6406,7.71875 40.6406,7 C40.6406,6.28125 40.487,5.71354 40.1797,5.29688 C39.8724,4.88021 39.4583,4.67188 38.9375,4.67188 M38.9375,3.84375 C39.7917,3.84375 40.4635,4.1224 40.9531,4.67969 C41.4427,5.23698 41.6875,6.01042 41.6875,7 C41.6875,7.97917 41.4427,8.75 40.9531,9.3125 C40.4635,9.875 39.7917,10.1562 38.9375,10.1562 C38.0729,10.1562 37.3958,9.875 36.9062,9.3125 C36.4167,8.75 36.1719,7.97917 36.1719,7 C36.1719,6.01042 36.4167,5.23698 36.9062,4.67969 C37.3958,4.1224 38.0729,3.84375 38.9375,3.84375 M48.3125,6.375 L48.3125,10 L47.3281,10 L47.3281,6.40625 C47.3281,5.83333 47.2188,5.40625 47,5.125 C46.7812,4.84375 46.4479,4.70312 46,4.70312 C45.4688,4.70312 45.0495,4.8724 44.7422,5.21094 C44.4349,5.54948 44.2812,6.01042 44.2812,6.59375 L44.2812,10 L43.2812,10 L43.2812,3.98438 L44.2812,3.98438 L44.2812,4.92188 C44.5104,4.55729 44.7865,4.28646 45.1094,4.10938 C45.4323,3.93229 45.8021,3.84375 46.2188,3.84375 C46.9062,3.84375 47.4271,4.05729 47.7812,4.48438 C48.1354,4.91146 48.3125,5.54167 48.3125,6.375 "/>
</g>

<g fill="none" stroke="#000000" stroke-opacity="1" stroke-width="1" stroke-linecap="square" stroke-linejoin="bevel" transform="matrix(1.99952,0,0,1.99952,1242.75,7.99808)"
font-family="sans" font-size="11" font-weight="100" font-style="normal" 
>
</g>

<g fill="none" stroke="#000000" stroke-opacity="1" stroke-width="1" stroke-linecap="square" stroke-linejoin="bevel" transform="matrix(1.99952,0,0,1.99952,1242.75,7.99808)"
font-family="Ubuntu" font-size="11" font-weight="400" font-style="normal" 
>
</g>

<g fill="none" stroke="#000000" stroke-opacity="1" stroke-width="1" stroke-linecap="square" stroke-linejoin="bevel" transform="matrix(1.99952,0,0,1.99952,-0.00479885,71.9827)"
font-family="Ubuntu" font-size="11" font-weight="400" font-style="normal" 
>
</g>

<g fill="#000000" fill-opacity="1" stroke="#000000" stroke-opacity="1" stroke-width="1" stroke-linecap="square" stroke-linejoin="round" transform="matrix(1.99952,0,0,1.99952,-0.00479885,71.9827)"
font-family="Ubuntu" font-size="11" font-weight="400" font-style="normal" 
>
<path vector-effect="none" fill-rule="evenodd" d="M669.94,-18 L669.94,-14.43 L680.14,-18 L669.94,-21.57 L669.94,-18"/>
</g>

<g fill="none" stroke="#000000" stroke-opacity="1" stroke-width="1" stroke-linecap="square" stroke-linejoin="bevel" transform="matrix(1.99952,0,0,1.99952,-0.00479885,71.9827)"
font-family="Ubuntu" font-size="11" font-weight="400" font-style="normal" 
>
</g>

<g fill="none" stroke="#000000" stroke-opacity="1" stroke-width="1" stroke-linecap="square" stroke-linejoin="bevel" transform="matrix(1.99952,0,0,1.99952,-0.00479885,71.9827)"
font-family="Ubuntu" font-size="11" font-weight="400" font-style="normal" 
>
</g>

<g fill="none" stroke="#000000" stroke-opacity="1" stroke-width="1" stroke-linecap="square" stroke-linejoin="bevel" transform="matrix(1.99952,0,0,1.99952,-0.00479885,71.9827)"
font-family="Ubuntu" font-size="11" font-weight="400" font-style="normal" 
>
</g>

<g fill="none" stroke="#000000" stroke-opacity="1" stroke-width="1" stroke-linecap="square" stroke-linejoin="bevel" transform="matrix(1.99952,0,0,1.99952,-0.00479885,71.9827)"
font-family="Ubuntu" font-size="11" font-weight="400" font-style="normal" 
>
</g>

<g fill="none" stroke="#000000" stroke-opacity="1" stroke-width="1" stroke-linecap="square" stroke-linejoin="round" transform="matrix(1.99952,0,0,1.99952,-0.00479885,71.9827)"
font-family="Ubuntu" font-size="11" font-weight="400" font-style="normal" 
>
<path vector-effect="none" fill-rule="evenodd" d="M256.53,-18 C277.19,-18 298.76,-18 319.9,-18 "/>
</g>

<g fill="none" stroke="#000000" stroke-opacity="1" stroke-width="1" stroke-linecap="square" stroke-linejoin="bevel" transform="matrix(1.99952,0,0,1.99952,-0.00479885,71.9827)"
font-family="Ubuntu" font-size="11" font-weight="400" font-style="normal" 
>
</g>

<g fill="none" stroke="#000000" stroke-opacity="1" stroke-width="1" stroke-linecap="square" stroke-linejoin="bevel" transform="matrix(1.99952,0,0,1.99952,526.513,7.99808)"
font-family="Ubuntu" font-size="11" font-weight="400" font-style="normal" 
>
</g>

<g fill="none" stroke="#000000" stroke-opacity="1" stroke-width="1" stroke-linecap="square" stroke-linejoin="bevel" transform="matrix(1.99952,0,0,1.99952,526.513,7.99808)"
font-family="sans" font-size="11" font-weight="100" font-style="normal" 
>
</g>

<g fill="#000000" fill-opacity="1" stroke="#000000" stroke-opacity="1" stroke-width="1" stroke-linecap="square" stroke-linejoin="round" transform="matrix(1.99952,0,0,1.99952,526.513,7.99808)"
font-family="sans" font-size="11" font-weight="100" font-style="normal" 
>
<path vector-effect="none" fill-rule="nonzero" d="M2.79688,1.98438 L3.70312,1.98438 L0.90625,11.0156 L0,11.0156 L2.79688,1.98438 M10.25,8.85938 L10.25,6.70312 L8.48438,6.70312 L8.48438,5.8125 L11.3281,5.8125 L11.3281,9.25 C10.9115,9.55208 10.4505,9.77865 9.94531,9.92969 C9.4401,10.0807 8.90104,10.1562 8.32812,10.1562 C7.06771,10.1562 6.08594,9.78906 5.38281,9.05469 C4.67969,8.32031 4.32812,7.30208 4.32812,6 C4.32812,4.6875 4.67969,3.66406 5.38281,2.92969 C6.08594,2.19531 7.06771,1.82812 8.32812,1.82812 C8.84896,1.82812 9.34375,1.89323 9.8125,2.02344 C10.2812,2.15365 10.7135,2.34375 11.1094,2.59375 L11.1094,3.75 C10.7135,3.41667 10.2891,3.16406 9.83594,2.99219 C9.38281,2.82031 8.90625,2.73438 8.40625,2.73438 C7.42708,2.73438 6.69271,3.00781 6.20312,3.55469 C5.71354,4.10156 5.46875,4.91667 5.46875,6 C5.46875,7.08333 5.71354,7.89844 6.20312,8.44531 C6.69271,8.99219 7.42708,9.26562 8.40625,9.26562 C8.79167,9.26562 9.13542,9.23177 9.4375,9.16406 C9.73958,9.09635 10.0104,8.99479 10.25,8.85938 M18.4062,6.75 L18.4062,7.23438 L13.8594,7.23438 C13.901,7.91146 14.1042,8.42708 14.4688,8.78125 C14.8333,9.13542 15.3438,9.3125 16,9.3125 C16.3854,9.3125 16.7552,9.26562 17.1094,9.17188 C17.4635,9.07812 17.8177,8.94271 18.1719,8.76562 L18.1719,9.6875 C17.8177,9.84375 17.4531,9.96094 17.0781,10.0391 C16.7031,10.1172 16.3281,10.1562 15.9531,10.1562 C14.9844,10.1562 14.2214,9.8776 13.6641,9.32031 C13.1068,8.76302 12.8281,8.00521 12.8281,7.04688 C12.8281,6.06771 13.0938,5.28906 13.625,4.71094 C14.1562,4.13281 14.875,3.84375 15.7812,3.84375 C16.5833,3.84375 17.2214,4.10417 17.6953,4.625 C18.1693,5.14583 18.4062,5.85417 18.4062,6.75 M17.4062,6.45312 C17.4062,5.91146 17.2578,5.47917 16.9609,5.15625 C16.6641,4.83333 16.2708,4.67188 15.7812,4.67188 C15.2292,4.67188 14.7891,4.82812 14.4609,5.14062 C14.1328,5.45312 13.9427,5.89062 13.8906,6.45312 L17.4062,6.45312 M25.0156,6.375 L25.0156,10 L24.0312,10 L24.0312,6.40625 C24.0312,5.83333 23.9219,5.40625 23.7031,5.125 C23.4844,4.84375 23.151,4.70312 22.7031,4.70312 C22.1719,4.70312 21.7526,4.8724 21.4453,5.21094 C21.138,5.54948 20.9844,6.01042 20.9844,6.59375 L20.9844,10 L19.9844,10 L19.9844,3.98438 L20.9844,3.98438 L20.9844,4.92188 C21.2135,4.55729 21.4896,4.28646 21.8125,4.10938 C22.1354,3.93229 22.5052,3.84375 22.9219,3.84375 C23.6094,3.84375 24.1302,4.05729 24.4844,4.48438 C24.8385,4.91146 25.0156,5.54167 25.0156,6.375 M32.1406,6.75 L32.1406,7.23438 L27.5938,7.23438 C27.6354,7.91146 27.8385,8.42708 28.2031,8.78125 C28.5677,9.13542 29.0781,9.3125 29.7344,9.3125 C30.1198,9.3125 30.4896,9.26562 30.8438,9.17188 C31.1979,9.07812 31.5521,8.94271 31.9062,8.76562 L31.9062,9.6875 C31.5521,9.84375 31.1875,9.96094 30.8125,10.0391 C30.4375,10.1172 30.0625,10.1562 29.6875,10.1562 C28.7188,10.1562 27.9557,9.8776 27.3984,9.32031 C26.8411,8.76302 26.5625,8.00521 26.5625,7.04688 C26.5625,6.06771 26.8281,5.28906 27.3594,4.71094 C27.8906,4.13281 28.6094,3.84375 29.5156,3.84375 C30.3177,3.84375 30.9557,4.10417 31.4297,4.625 C31.9036,5.14583 32.1406,5.85417 32.1406,6.75 M31.1406,6.45312 C31.1406,5.91146 30.9922,5.47917 30.6953,5.15625 C30.3984,4.83333 30.0052,4.67188 29.5156,4.67188 C28.9635,4.67188 28.5234,4.82812 28.1953,5.14062 C27.8672,5.45312 27.6771,5.89062 27.625,6.45312 L31.1406,6.45312 M37.2344,4.90625 C37.1302,4.84375 37.013,4.79688 36.8828,4.76562 C36.7526,4.73438 36.6094,4.71875 36.4531,4.71875 C35.8906,4.71875 35.4609,4.90104 35.1641,5.26562 C34.8672,5.63021 34.7188,6.15104 34.7188,6.82812 L34.7188,10 L33.7188,10 L33.7188,3.98438 L34.7188,3.98438 L34.7188,4.92188 C34.9167,4.55729 35.1823,4.28646 35.5156,4.10938 C35.849,3.93229 36.2552,3.84375 36.7344,3.84375 C36.8073,3.84375 36.8828,3.84635 36.9609,3.85156 C37.0391,3.85677 37.1302,3.86979 37.2344,3.89062 L37.2344,4.90625 M41,6.96875 C40.2083,6.96875 39.6589,7.0625 39.3516,7.25 C39.0443,7.4375 38.8906,7.75 38.8906,8.1875 C38.8906,8.53125 39.0052,8.80729 39.2344,9.01562 C39.4635,9.22396 39.776,9.32812 40.1719,9.32812 C40.724,9.32812 41.1641,9.13281 41.4922,8.74219 C41.8203,8.35156 41.9844,7.83854 41.9844,7.20312 L41.9844,6.96875 L41,6.96875 M42.9688,6.5625 L42.9688,10 L41.9844,10 L41.9844,9.09375 C41.7656,9.45833 41.487,9.72656 41.1484,9.89844 C40.8099,10.0703 40.3958,10.1562 39.9062,10.1562 C39.2917,10.1562 38.8021,9.98438 38.4375,9.64062 C38.0729,9.29688 37.8906,8.83333 37.8906,8.25 C37.8906,7.57292 38.1172,7.0625 38.5703,6.71875 C39.0234,6.375 39.7031,6.20312 40.6094,6.20312 L41.9844,6.20312 L41.9844,6.10938 C41.9844,5.65104 41.8359,5.29688 41.5391,5.04688 C41.2422,4.79688 40.8229,4.67188 40.2812,4.67188 C39.9375,4.67188 39.6016,4.71354 39.2734,4.79688 C38.9453,4.88021 38.6302,5.00521 38.3281,5.17188 L38.3281,4.26562 C38.6927,4.11979 39.0469,4.01302 39.3906,3.94531 C39.7344,3.8776 40.0625,3.84375 40.375,3.84375 C41.25,3.84375 41.901,4.06771 42.3281,4.51562 C42.7552,4.96354 42.9688,5.64583 42.9688,6.5625 M45.9844,2.28125 L45.9844,3.98438 L48.0156,3.98438 L48.0156,4.75 L45.9844,4.75 L45.9844,8.01562 C45.9844,8.50521 46.0521,8.82031 46.1875,8.96094 C46.3229,9.10156 46.5938,9.17188 47,9.17188 L48.0156,9.17188 L48.0156,10 L47,10 C46.2396,10 45.7135,9.85677 45.4219,9.57031 C45.1302,9.28385 44.9844,8.76562 44.9844,8.01562 L44.9844,4.75 L44.2656,4.75 L44.2656,3.98438 L44.9844,3.98438 L44.9844,2.28125 L45.9844,2.28125 M51.6562,4.67188 C51.125,4.67188 50.7057,4.88021 50.3984,5.29688 C50.0911,5.71354 49.9375,6.28125 49.9375,7 C49.9375,7.71875 50.0885,8.28385 50.3906,8.69531 C50.6927,9.10677 51.1146,9.3125 51.6562,9.3125 C52.1771,9.3125 52.5911,9.10677 52.8984,8.69531 C53.2057,8.28385 53.3594,7.71875 53.3594,7 C53.3594,6.28125 53.2057,5.71354 52.8984,5.29688 C52.5911,4.88021 52.1771,4.67188 51.6562,4.67188 M51.6562,3.84375 C52.5104,3.84375 53.1823,4.1224 53.6719,4.67969 C54.1615,5.23698 54.4062,6.01042 54.4062,7 C54.4062,7.97917 54.1615,8.75 53.6719,9.3125 C53.1823,9.875 52.5104,10.1562 51.6562,10.1562 C50.7917,10.1562 50.1146,9.875 49.625,9.3125 C49.1354,8.75 48.8906,7.97917 48.8906,7 C48.8906,6.01042 49.1354,5.23698 49.625,4.67969 C50.1146,4.1224 50.7917,3.84375 51.6562,3.84375 M59.5156,4.90625 C59.4115,4.84375 59.2943,4.79688 59.1641,4.76562 C59.0339,4.73438 58.8906,4.71875 58.7344,4.71875 C58.1719,4.71875 57.7422,4.90104 57.4453,5.26562 C57.1484,5.63021 57,6.15104 57,6.82812 L57,10 L56,10 L56,3.98438 L57,3.98438 L57,4.92188 C57.1979,4.55729 57.4635,4.28646 57.7969,4.10938 C58.1302,3.93229 58.5365,3.84375 59.0156,3.84375 C59.0885,3.84375 59.1641,3.84635 59.2422,3.85156 C59.3203,3.85677 59.4115,3.86979 59.5156,3.89062 L59.5156,4.90625"/>
</g>

<g fill="none" stroke="#000000" stroke-opacity="1" stroke-width="1" stroke-linecap="square" stroke-linejoin="bevel" transform="matrix(1.99952,0,0,1.99952,526.513,7.99808)"
font-family="sans" font-size="11" font-weight="100" font-style="normal" 
>
</g>

<g fill="none" stroke="#000000" stroke-opacity="1" stroke-width="1" stroke-linecap="square" stroke-linejoin="bevel" transform="matrix(1.99952,0,0,1.99952,526.513,7.99808)"
font-family="Ubuntu" font-size="11" font-weight="400" font-style="normal" 
>
</g>

<g fill="none" stroke="#000000" stroke-opacity="1" stroke-width="1" stroke-linecap="square" stroke-linejoin="bevel" transform="matrix(1.99952,0,0,1.99952,-0.00479885,71.9827)"
font-family="Ubuntu" font-size="11" font-weight="400" font-style="normal" 
>
</g>

<g fill="#000000" fill-opacity="1" stroke="#000000" stroke-opacity="1" stroke-width="1" stroke-linecap="square" stroke-linejoin="round" transform="matrix(1.99952,0,0,1.99952,-0.00479885,71.9827)"
font-family="Ubuntu" font-size="11" font-weight="400" font-style="normal" 
>
<path vector-effect="none" fill-rule="evenodd" d="M319.9,-18 L319.9,-14.4965 L329.91,-18 L319.9,-21.5035 L319.9,-18"/>
</g>

<g fill="none" stroke="#000000" stroke-opacity="1" stroke-width="1" stroke-linecap="square" stroke-linejoin="bevel" transform="matrix(1.99952,0,0,1.99952,-0.00479885,71.9827)"
font-family="Ubuntu" font-size="11" font-weight="400" font-style="normal" 
>
</g>

<g fill="none" stroke="#000000" stroke-opacity="1" stroke-width="1" stroke-linecap="square" stroke-linejoin="bevel" transform="matrix(1,0,0,1,0,0)"
font-family="Ubuntu" font-size="11" font-weight="400" font-style="normal" 
>
</g>
</g>
</svg>
